<?xml version="1.0" encoding="UTF-8" standalone="no"?>
<!-- Generator: Adobe Illustrator 19.0.0, SVG Export Plug-In . SVG Version: 6.00 Build 0)  -->

<svg
   xmlns:dc="http://purl.org/dc/elements/1.1/"
   xmlns:cc="http://creativecommons.org/ns#"
   xmlns:rdf="http://www.w3.org/1999/02/22-rdf-syntax-ns#"
   xmlns:svg="http://www.w3.org/2000/svg"
   xmlns="http://www.w3.org/2000/svg"
   xmlns:sodipodi="http://sodipodi.sourceforge.net/DTD/sodipodi-0.dtd"
   xmlns:inkscape="http://www.inkscape.org/namespaces/inkscape"
   version="1.1"
   id="Layer_1"
   x="0px"
   y="0px"
   viewBox="0 0 500.00002 500.00002"
   xml:space="preserve"
   sodipodi:docname="Accordion.svg"
   width="500"
   height="500"
   inkscape:version="0.92.3 (2405546, 2018-03-11)"><metadata
   id="metadata3797"><rdf:RDF><cc:Work
       rdf:about=""><dc:format>image/svg+xml</dc:format><dc:type
         rdf:resource="http://purl.org/dc/dcmitype/StillImage" /><dc:title /></cc:Work></rdf:RDF></metadata><defs
   id="defs3795" /><sodipodi:namedview
   pagecolor="#ffffff"
   bordercolor="#666666"
   borderopacity="1"
   objecttolerance="10"
   gridtolerance="10"
   guidetolerance="10"
   inkscape:pageopacity="0"
   inkscape:pageshadow="2"
   inkscape:window-width="958"
   inkscape:window-height="1008"
   id="namedview3793"
   showgrid="false"
   fit-margin-bottom="0.1"
   inkscape:zoom="1.5683564"
   inkscape:cx="256.00049"
   inkscape:cy="256.00049"
   inkscape:window-x="-7"
   inkscape:window-y="0"
   inkscape:window-maximized="0"
   inkscape:current-layer="Layer_1"
   showguides="false" />
<g
   id="g3760"
   transform="matrix(0.97655984,0,0,1.2422432,-4.7388372e-6,-68.014461)">
	<g
   id="g3758">
		<path
   d="m 501.257,80.672 c -8.088,-9.97 -19.572,-16.193 -32.341,-17.524 l -54.819,-5.715 c -4.715,-0.496 -9.42,0.91 -13.096,3.891 -3.675,2.983 -6.017,7.322 -6.507,12.031 l -0.432,4.164 h -32.57 C 360.88,68 353.519,61.219 344.282,60.911 334.627,60.555 326.555,68 325.901,77.519 h -27.13 C 298.137,68 290.427,60.9 280.985,60.9 c -9.443,0 -17.152,7.1 -17.786,16.619 H 235.343 C 234.686,68 226.578,60.598 216.963,60.911 207.726,61.219 200.364,68 199.753,77.519 h -32.138 c -0.383,0 -0.757,0.013 -1.134,0.037 l -0.75,-6.885 C 164.663,60.872 155.843,53.78 146.053,54.86 L 15.911,69.06 c -4.706,0.514 -9.014,2.874 -11.978,6.564 -2.964,3.691 -4.341,8.408 -3.828,13.112 l 38.48,352.6 c 0.997,9.143 8.731,15.913 17.721,15.913 0.646,0 1.302,-0.034 1.959,-0.107 L 188.408,442.94 c 4.706,-0.514 9.014,-2.895 11.978,-6.585 0.475,-0.591 0.894,-0.687 1.286,-1.876 h 9.932 l 0.019,0.576 c 0.322,9.649 8.245,17.261 17.827,17.261 0.201,0 0.405,-0.018 0.607,-0.025 9.638,-0.322 17.214,-8.293 17.23,-17.812 h 15.854 c 0.021,9.519 8.002,17.809 17.846,17.809 9.844,0 17.824,-8.29 17.846,-17.809 h 15.129 c 0.017,9.519 7.593,17.496 17.23,17.818 0.202,0.007 0.406,0.02 0.607,0.02 9.582,0 17.505,-7.618 17.827,-17.266 l 0.019,-0.571 h 9.237 c 2.369,5.949 7.896,10.505 14.741,11.219 l 54.819,5.724 c 1.699,0.177 3.391,0.27 5.075,0.27 10.979,0 21.541,-3.728 30.186,-10.739 9.971,-8.087 16.194,-19.573 17.524,-32.341 l 30.51,-292.682 c 1.33,-12.769 -2.392,-25.29 -10.48,-35.259 z m -429.12,339.05 -34.611,-317.116 94.657,-10.328 2.2,20.165 -34.338,3.747 c -9.799,1.069 -16.877,9.879 -15.806,19.678 0.997,9.143 8.731,15.913 17.721,15.913 0.646,0 1.301,-0.034 1.959,-0.107 l 34.339,-3.747 1.419,13.012 -34.338,3.747 c -9.799,1.068 -16.877,9.879 -15.806,19.678 0.997,9.143 8.731,15.913 17.721,15.913 0.646,0 1.302,-0.035 1.959,-0.107 l 34.339,-3.747 1.419,13.012 -34.339,3.748 c -9.799,1.069 -16.876,9.881 -15.805,19.679 0.997,9.141 8.731,15.912 17.721,15.912 0.647,0 1.3,-0.034 1.958,-0.107 l 34.337,-3.748 1.42,13.012 -34.338,3.748 c -9.799,1.069 -16.876,9.881 -15.805,19.679 0.997,9.141 8.731,15.912 17.721,15.912 0.647,0 1.301,-0.034 1.959,-0.107 l 34.337,-3.748 1.421,13.014 -34.338,3.747 c -9.799,1.069 -16.877,9.879 -15.806,19.678 0.997,9.143 8.731,15.913 17.721,15.913 0.646,0 1.301,-0.035 1.958,-0.107 l 34.34,-3.747 1.419,13.012 -34.338,3.747 c -9.799,1.068 -16.877,9.879 -15.806,19.678 0.997,9.143 8.731,15.913 17.721,15.913 0.646,0 1.302,-0.034 1.958,-0.107 l 34.338,-3.747 2.072,18.983 z m 129.407,-20.94 -31.173,-285.568 h 30.483 l 9.553,285.568 z m 61.593,0 H 246.123 L 236.57,113.214 h 26.567 z m 51.985,0 H 298.834 V 113.214 h 25.841 z m 45.444,0 h -9.73 l 9.553,-285.568 h 29.952 z m 115.666,-286.553 -30.51,292.683 c -0.343,3.285 -1.943,6.241 -4.508,8.321 -2.564,2.08 -5.789,3.035 -9.07,2.696 l -37.068,-3.865 33.073,-317.277 37.067,3.864 c 3.285,0.343 6.24,1.944 8.321,4.508 2.08,2.565 3.036,5.786 2.695,9.07 z"
   id="path3756"
   inkscape:connector-curvature="0" />
	</g>
</g>
<g
   id="g3762"
   transform="matrix(0.97655984,0,0,1.0024524,-4.7388372e-6,-12.700124)">
</g>
<g
   id="g3764"
   transform="matrix(0.97655984,0,0,1.0024524,-4.7388372e-6,-12.700124)">
</g>
<g
   id="g3766"
   transform="matrix(0.97655984,0,0,1.0024524,-4.7388372e-6,-12.700124)">
</g>
<g
   id="g3768"
   transform="matrix(0.97655984,0,0,1.0024524,-4.7388372e-6,-12.700124)">
</g>
<g
   id="g3770"
   transform="matrix(0.97655984,0,0,1.0024524,-4.7388372e-6,-12.700124)">
</g>
<g
   id="g3772"
   transform="matrix(0.97655984,0,0,1.0024524,-4.7388372e-6,-12.700124)">
</g>
<g
   id="g3774"
   transform="matrix(0.97655984,0,0,1.0024524,-4.7388372e-6,-12.700124)">
</g>
<g
   id="g3776"
   transform="matrix(0.97655984,0,0,1.0024524,-4.7388372e-6,-12.700124)">
</g>
<g
   id="g3778"
   transform="matrix(0.97655984,0,0,1.0024524,-4.7388372e-6,-12.700124)">
</g>
<g
   id="g3780"
   transform="matrix(0.97655984,0,0,1.0024524,-4.7388372e-6,-12.700124)">
</g>
<g
   id="g3782"
   transform="matrix(0.97655984,0,0,1.0024524,-4.7388372e-6,-12.700124)">
</g>
<g
   id="g3784"
   transform="matrix(0.97655984,0,0,1.0024524,-4.7388372e-6,-12.700124)">
</g>
<g
   id="g3786"
   transform="matrix(0.97655984,0,0,1.0024524,-4.7388372e-6,-12.700124)">
</g>
<g
   id="g3788"
   transform="matrix(0.97655984,0,0,1.0024524,-4.7388372e-6,-12.700124)">
</g>
<g
   id="g3790"
   transform="matrix(0.97655984,0,0,1.0024524,-4.7388372e-6,-12.700124)">
</g>
</svg>