<?xml version="1.0" encoding="UTF-8" standalone="no"?>
<!-- Generator: Adobe Illustrator 19.0.0, SVG Export Plug-In . SVG Version: 6.00 Build 0)  -->

<svg
   xmlns:dc="http://purl.org/dc/elements/1.1/"
   xmlns:cc="http://creativecommons.org/ns#"
   xmlns:rdf="http://www.w3.org/1999/02/22-rdf-syntax-ns#"
   xmlns:svg="http://www.w3.org/2000/svg"
   xmlns="http://www.w3.org/2000/svg"
   xmlns:sodipodi="http://sodipodi.sourceforge.net/DTD/sodipodi-0.dtd"
   xmlns:inkscape="http://www.inkscape.org/namespaces/inkscape"
   version="1.1"
   id="Layer_1"
   x="0px"
   y="0px"
   viewBox="0 0 500 500"
   xml:space="preserve"
   sodipodi:docname="Banjo.svg"
   width="500"
   height="500"
   inkscape:version="0.92.3 (2405546, 2018-03-11)"><metadata
   id="metadata145"><rdf:RDF><cc:Work
       rdf:about=""><dc:format>image/svg+xml</dc:format><dc:type
         rdf:resource="http://purl.org/dc/dcmitype/StillImage" /><dc:title></dc:title></cc:Work></rdf:RDF></metadata><defs
   id="defs143" /><sodipodi:namedview
   pagecolor="#ffffff"
   bordercolor="#666666"
   borderopacity="1"
   objecttolerance="10"
   gridtolerance="10"
   guidetolerance="10"
   inkscape:pageopacity="0"
   inkscape:pageshadow="2"
   inkscape:window-width="958"
   inkscape:window-height="1008"
   id="namedview141"
   showgrid="false"
   inkscape:zoom="1.7085106"
   inkscape:cx="235"
   inkscape:cy="305.23661"
   inkscape:window-x="-7"
   inkscape:window-y="0"
   inkscape:window-maximized="0"
   inkscape:current-layer="Layer_1" />
<g
   id="g108"
   transform="matrix(1.0638298,0,0,1.0638683,0,-0.00852619)">
	<g
   id="g106">
		<g
   id="g104">
			<path
   d="m 457.211,65.821 1.804,-1.804 C 466.099,56.933 470,47.514 470,37.496 470,27.478 466.099,18.06 459.016,10.976 444.391,-3.648 420.6,-3.648 405.975,10.976 l -1.804,1.804 -6.091,-6.09 c -2.93,-2.929 -7.678,-2.929 -10.607,0 -2.929,2.929 -2.929,7.677 0,10.606 l 6.091,6.091 -10.54,10.54 -6.028,-6.028 c -2.93,-2.929 -7.678,-2.929 -10.607,0 -2.929,2.929 -2.929,7.678 0,10.607 l 6.029,6.028 -1.804,1.804 c -7.826,7.826 -11.738,18.61 -10.866,29.506 L 194.464,233.907 C 144.487,202.997 79.338,210.312 37.35,252.301 13.265,276.387 0,308.409 0,342.471 c 0,34.062 13.265,66.085 37.35,90.17 24.085,24.085 56.108,37.35 90.171,37.35 34.062,0 66.084,-13.264 90.17,-37.35 41.989,-41.989 49.303,-107.138 18.394,-157.114 L 394.148,110.244 c 10.896,0.87 21.679,-3.04 29.507,-10.867 l 1.803,-1.803 6.028,6.028 c 1.465,1.465 3.384,2.197 5.304,2.197 1.919,0 3.839,-0.732 5.303,-2.197 2.93,-2.929 2.93,-7.677 10e-4,-10.607 l -6.028,-6.028 10.54,-10.54 6.091,6.091 c 1.465,1.465 3.385,2.197 5.304,2.197 1.919,0 3.839,-0.732 5.304,-2.197 2.929,-2.929 2.929,-7.677 0,-10.606 z M 47.957,422.035 c -1.983,-1.983 -3.882,-4.026 -5.696,-6.127 l 33.738,-43.169 21.252,21.253 -43.168,33.738 c -2.1,-1.814 -4.144,-3.713 -6.126,-5.695 z m 159.126,0 c -21.252,21.252 -49.508,32.956 -79.563,32.956 -21.977,0 -42.988,-6.265 -61.006,-17.939 l 46.653,-36.461 c 1.692,-1.323 2.737,-3.308 2.868,-5.452 0.131,-2.144 -0.664,-4.241 -2.183,-5.76 l -33.239,-33.24 c -1.519,-1.518 -3.616,-2.313 -5.761,-2.183 -2.145,0.131 -4.13,1.175 -5.452,2.868 L 32.939,403.477 C 21.265,385.46 15,364.448 15,342.471 c 0,-30.055 11.704,-58.312 32.957,-79.564 36.114,-36.114 91.635,-43.153 135.249,-18.234 l -11.39,10.892 c -13.541,-6.907 -28.631,-10.567 -44.296,-10.567 -26.073,0 -50.564,10.129 -68.954,28.519 -22.72,22.72 -32.76,55.214 -26.856,86.923 0.758,4.073 4.678,6.758 8.746,6.001 4.071,-0.758 6.759,-4.674 6,-8.746 -4.997,-26.846 3.495,-54.349 22.718,-73.571 15.558,-15.558 36.278,-24.126 58.346,-24.126 14.94,0 29.256,3.939 41.776,11.303 0.05,0.029 0.1,0.058 0.151,0.086 5.917,3.497 11.436,7.754 16.419,12.737 32.173,32.173 32.173,84.521 0,116.694 -19.221,19.222 -46.723,27.716 -73.57,22.717 -4.072,-0.758 -7.987,1.928 -8.746,6.001 -0.759,4.072 1.929,7.988 6,8.746 5.986,1.114 12,1.66 17.971,1.66 25.657,0 50.521,-10.086 68.953,-28.517 30.586,-30.587 36.546,-76.596 17.921,-113.217 l 10.923,-11.422 c 24.919,43.613 17.88,99.135 -18.235,135.249 z M 221.18,269.411 c -0.019,0.02 -0.038,0.039 -0.057,0.059 l -14.833,15.511 c -2.929,-4.009 -6.198,-7.845 -9.816,-11.463 -3.596,-3.596 -7.428,-6.871 -11.457,-9.822 l 15.521,-14.843 C 200.568,248.825 367.57,89.117 367.57,89.117 l 13.304,13.304 z M 448.407,53.41 l -7.105,7.105 c -0.004,0.004 -28.256,28.256 -28.256,28.256 -4.797,4.798 -11.452,7.134 -18.139,6.471 L 374.749,75.085 c -0.662,-6.688 1.672,-13.342 6.471,-18.141 l 7.105,-7.105 c 0.004,-0.004 28.256,-28.256 28.256,-28.256 4.25,-4.25 9.901,-6.592 15.913,-6.592 6.012,0 11.663,2.341 15.913,6.592 4.251,4.25 6.592,9.902 6.592,15.913 0,6.012 -2.341,11.664 -6.592,15.914 z"
   id="path100"
   inkscape:connector-curvature="0" />
			<path
   d="m 136.837,373.894 c 1.919,0 3.839,-0.732 5.304,-2.197 2.929,-2.929 2.929,-7.677 0,-10.606 l -33.239,-33.24 c -2.93,-2.928 -7.678,-2.929 -10.607,0 -2.929,2.929 -2.929,7.677 0,10.606 l 33.239,33.24 c 1.464,1.464 3.383,2.197 5.303,2.197 z"
   id="path102"
   inkscape:connector-curvature="0" />
		</g>
	</g>
</g>
<g
   id="g110"
   transform="matrix(1.0638298,0,0,1.0638683,0,-0.00852619)">
</g>
<g
   id="g112"
   transform="matrix(1.0638298,0,0,1.0638683,0,-0.00852619)">
</g>
<g
   id="g114"
   transform="matrix(1.0638298,0,0,1.0638683,0,-0.00852619)">
</g>
<g
   id="g116"
   transform="matrix(1.0638298,0,0,1.0638683,0,-0.00852619)">
</g>
<g
   id="g118"
   transform="matrix(1.0638298,0,0,1.0638683,0,-0.00852619)">
</g>
<g
   id="g120"
   transform="matrix(1.0638298,0,0,1.0638683,0,-0.00852619)">
</g>
<g
   id="g122"
   transform="matrix(1.0638298,0,0,1.0638683,0,-0.00852619)">
</g>
<g
   id="g124"
   transform="matrix(1.0638298,0,0,1.0638683,0,-0.00852619)">
</g>
<g
   id="g126"
   transform="matrix(1.0638298,0,0,1.0638683,0,-0.00852619)">
</g>
<g
   id="g128"
   transform="matrix(1.0638298,0,0,1.0638683,0,-0.00852619)">
</g>
<g
   id="g130"
   transform="matrix(1.0638298,0,0,1.0638683,0,-0.00852619)">
</g>
<g
   id="g132"
   transform="matrix(1.0638298,0,0,1.0638683,0,-0.00852619)">
</g>
<g
   id="g134"
   transform="matrix(1.0638298,0,0,1.0638683,0,-0.00852619)">
</g>
<g
   id="g136"
   transform="matrix(1.0638298,0,0,1.0638683,0,-0.00852619)">
</g>
<g
   id="g138"
   transform="matrix(1.0638298,0,0,1.0638683,0,-0.00852619)">
</g>
</svg>