<?xml version="1.0" encoding="iso-8859-1"?>
<!-- Generator: Adobe Illustrator 19.0.0, SVG Export Plug-In . SVG Version: 6.00 Build 0)  -->
<svg version="1.1" id="Layer_1" xmlns="http://www.w3.org/2000/svg" xmlns:xlink="http://www.w3.org/1999/xlink" x="0px" y="0px"
	 viewBox="0 0 470 470" style="enable-background:new 0 0 470 470;" xml:space="preserve">
<g>
	<g>
		<g>
			<path d="M457.211,65.821l1.804-1.804C466.099,56.933,470,47.514,470,37.496s-3.901-19.436-10.984-26.52
				c-14.625-14.624-38.416-14.624-53.041,0l-1.804,1.804L398.08,6.69c-2.93-2.929-7.678-2.929-10.607,0
				c-2.929,2.929-2.929,7.677,0,10.606l6.091,6.091l-10.54,10.54l-6.028-6.028c-2.93-2.929-7.678-2.929-10.607,0
				c-2.929,2.929-2.929,7.678,0,10.607l6.029,6.028l-1.804,1.804c-7.826,7.826-11.738,18.61-10.866,29.506L194.464,233.907
				c-49.977-30.91-115.126-23.595-157.114,18.394C13.265,276.387,0,308.409,0,342.471s13.265,66.085,37.35,90.17
				c24.085,24.085,56.108,37.35,90.171,37.35c34.062,0,66.084-13.264,90.17-37.35c41.989-41.989,49.303-107.138,18.394-157.114
				l158.063-165.283c10.896,0.87,21.679-3.04,29.507-10.867l1.803-1.803l6.028,6.028c1.465,1.465,3.384,2.197,5.304,2.197
				c1.919,0,3.839-0.732,5.303-2.197c2.93-2.929,2.93-7.677,0.001-10.607l-6.028-6.028l10.54-10.54l6.091,6.091
				c1.465,1.465,3.385,2.197,5.304,2.197c1.919,0,3.839-0.732,5.304-2.197c2.929-2.929,2.929-7.677,0-10.606L457.211,65.821z
				 M47.957,422.035c-1.983-1.983-3.882-4.026-5.696-6.127l33.738-43.169l21.252,21.253L54.083,427.73
				C51.983,425.916,49.939,424.017,47.957,422.035z M207.083,422.035c-21.252,21.252-49.508,32.956-79.563,32.956
				c-21.977,0-42.988-6.265-61.006-17.939l46.653-36.461c1.692-1.323,2.737-3.308,2.868-5.452c0.131-2.144-0.664-4.241-2.183-5.76
				l-33.239-33.24c-1.519-1.518-3.616-2.313-5.761-2.183c-2.145,0.131-4.13,1.175-5.452,2.868l-36.461,46.653
				C21.265,385.46,15,364.448,15,342.471c0-30.055,11.704-58.312,32.957-79.564c36.114-36.114,91.635-43.153,135.249-18.234
				l-11.39,10.892c-13.541-6.907-28.631-10.567-44.296-10.567c-26.073,0-50.564,10.129-68.954,28.519
				c-22.72,22.72-32.76,55.214-26.856,86.923c0.758,4.073,4.678,6.758,8.746,6.001c4.071-0.758,6.759-4.674,6-8.746
				c-4.997-26.846,3.495-54.349,22.718-73.571c15.558-15.558,36.278-24.126,58.346-24.126c14.94,0,29.256,3.939,41.776,11.303
				c0.05,0.029,0.1,0.058,0.151,0.086c5.917,3.497,11.436,7.754,16.419,12.737c32.173,32.173,32.173,84.521,0,116.694
				c-19.221,19.222-46.723,27.716-73.57,22.717c-4.072-0.758-7.987,1.928-8.746,6.001c-0.759,4.072,1.929,7.988,6,8.746
				c5.986,1.114,12,1.66,17.971,1.66c25.657,0,50.521-10.086,68.953-28.517c30.586-30.587,36.546-76.596,17.921-113.217
				l10.923-11.422C250.237,330.399,243.198,385.921,207.083,422.035z M221.18,269.411c-0.019,0.02-0.038,0.039-0.057,0.059
				l-14.833,15.511c-2.929-4.009-6.198-7.845-9.816-11.463c-3.596-3.596-7.428-6.871-11.457-9.822l15.521-14.843
				c0.03-0.028,167.032-159.736,167.032-159.736l13.304,13.304L221.18,269.411z M448.407,53.41l-7.105,7.105
				c-0.004,0.004-28.256,28.256-28.256,28.256c-4.797,4.798-11.452,7.134-18.139,6.471l-20.158-20.157
				c-0.662-6.688,1.672-13.342,6.471-18.141l7.105-7.105c0.004-0.004,28.256-28.256,28.256-28.256
				c4.25-4.25,9.901-6.592,15.913-6.592c6.012,0,11.663,2.341,15.913,6.592c4.251,4.25,6.592,9.902,6.592,15.913
				C454.999,43.508,452.658,49.16,448.407,53.41z"/>
			<path d="M136.837,373.894c1.919,0,3.839-0.732,5.304-2.197c2.929-2.929,2.929-7.677,0-10.606l-33.239-33.24
				c-2.93-2.928-7.678-2.929-10.607,0c-2.929,2.929-2.929,7.677,0,10.606l33.239,33.24
				C132.998,373.161,134.917,373.894,136.837,373.894z"/>
		</g>
	</g>
</g>
<g>
</g>
<g>
</g>
<g>
</g>
<g>
</g>
<g>
</g>
<g>
</g>
<g>
</g>
<g>
</g>
<g>
</g>
<g>
</g>
<g>
</g>
<g>
</g>
<g>
</g>
<g>
</g>
<g>
</g>
</svg>
