<?xml version="1.0" encoding="UTF-8" standalone="no"?>
<!-- Generator: Adobe Illustrator 16.0.0, SVG Export Plug-In . SVG Version: 6.00 Build 0)  -->

<svg
   xmlns:dc="http://purl.org/dc/elements/1.1/"
   xmlns:cc="http://creativecommons.org/ns#"
   xmlns:rdf="http://www.w3.org/1999/02/22-rdf-syntax-ns#"
   xmlns:svg="http://www.w3.org/2000/svg"
   xmlns="http://www.w3.org/2000/svg"
   xmlns:sodipodi="http://sodipodi.sourceforge.net/DTD/sodipodi-0.dtd"
   xmlns:inkscape="http://www.inkscape.org/namespaces/inkscape"
   version="1.1"
   id="Capa_1"
   x="0px"
   y="0px"
   viewBox="0 0 500 500"
   xml:space="preserve"
   sodipodi:docname="Bass.svg"
   width="500"
   height="500"
   inkscape:version="0.92.3 (2405546, 2018-03-11)"><metadata
   id="metadata253"><rdf:RDF><cc:Work
       rdf:about=""><dc:format>image/svg+xml</dc:format><dc:type
         rdf:resource="http://purl.org/dc/dcmitype/StillImage" /><dc:title></dc:title></cc:Work></rdf:RDF></metadata><defs
   id="defs251" /><sodipodi:namedview
   pagecolor="#ffffff"
   bordercolor="#666666"
   borderopacity="1"
   objecttolerance="10"
   gridtolerance="10"
   guidetolerance="10"
   inkscape:pageopacity="0"
   inkscape:pageshadow="2"
   inkscape:window-width="958"
   inkscape:window-height="1008"
   id="namedview249"
   showgrid="false"
   inkscape:zoom="0.50212766"
   inkscape:cx="235"
   inkscape:cy="235"
   inkscape:window-x="-7"
   inkscape:window-y="0"
   inkscape:window-maximized="0"
   inkscape:current-layer="Capa_1" />
<g
   id="g216"
   transform="matrix(1.8525298,0,0,1.5181597,-55.061157,1.754438e-4)">
	<path
   d="m 270.252,220.692 c -1.9,3.692 -4.759,6.68 -8.508,8.425 -10.807,5.049 -24.726,-1.91 -31.09,-15.545 -6.369,-13.634 -2.775,-28.774 8.031,-33.823 4.966,-2.319 10.595,-2.076 15.846,0.166 -8.928,-34.989 -42.793,-40.975 -56.245,-41.966 l 37.235,162.492 c 38.153,-19.589 40.521,-53.185 34.731,-79.749 z"
   id="path212"
   inkscape:connector-curvature="0" />
	<path
   d="m 168.442,26.047 3.648,-0.826 c 1.424,-0.329 2.32,-1.745 1.999,-3.177 -0.326,-1.426 -1.729,-2.322 -3.177,-1.999 l -3.659,0.826 -0.678,-2.951 4.282,-0.976 c 1.427,-0.329 2.325,-1.745 2.002,-3.177 -0.324,-1.427 -1.725,-2.312 -3.178,-1.999 l -4.295,0.976 -1.962,-8.549 c -0.668,-2.905 -3.562,-4.725 -6.467,-4.057 -2.908,0.67 -4.72,3.56 -4.057,6.465 l 1.958,8.526 -3.283,0.753 c -1.427,0.329 -2.322,1.745 -1.999,3.177 0.28,1.23 1.373,2.061 2.582,2.061 0.197,0 0.394,-0.021 0.59,-0.062 l 3.301,-0.748 0.681,2.954 -3.93,0.891 c -1.427,0.329 -2.322,1.745 -1.999,3.177 0.28,1.229 1.373,2.061 2.582,2.061 0.197,0 0.394,-0.021 0.59,-0.062 l 3.938,-0.891 17.199,75.069 -38.737,22.266 -16.443,-10.255 c 11.104,1.761 23.511,-3.07 31.726,-13.525 11.48,-14.625 10.382,-34.657 -2.457,-44.736 -12.836,-10.082 -32.555,-6.395 -44.04,8.229 -8.665,11.034 -10.159,25.145 -4.857,35.739 -9.864,10.136 -34.471,38.988 -41.79,80.9 -0.502,2.868 -0.885,5.83 -1.165,8.87 l -0.456,0.549 c 0.117,0.099 0.249,0.202 0.37,0.311 -4.401,50.647 19.084,121.878 20.151,125.078 l 20.482,-6.825 c -0.223,-0.657 -18.377,-55.778 -19.561,-100.27 11.799,10.383 24.413,22.054 29.933,28.946 5.97,7.467 7.71,38.717 5.89,63.4 l 21.533,1.59 c 0.738,-9.973 3.703,-60.646 -10.556,-78.479 C 116.017,213.91 93.407,194.13 80.327,183.018 84.061,164.361 91.864,148.703 99.484,136.99 l 4.629,15.689 c 0.829,2.812 3.49,6.385 5.945,7.982 l 37.153,24.21 c -0.811,5.438 -0.588,17.803 -0.026,21.153 2.63,-1.44 5.53,-2.248 8.585,-2.248 11.925,0 21.588,12.194 21.588,27.242 0,15.048 -9.663,27.242 -21.588,27.242 -1.178,0 -2.322,-0.145 -3.451,-0.373 7.788,23.747 25.64,46.287 65.205,46.977 l -37.35,-162.989 c -8.406,4.717 -21.981,14.268 -29.018,29.579 l -33.661,-22.438 -6.75,-22.864 20.834,12.992 c 2.485,1.548 6.558,1.623 9.098,0.163 l 37.674,-21.65 46.287,202.022 c 0.574,2.506 4.303,9.667 6.763,9.667 0.398,0 0.808,-0.046 1.217,-0.135 2.904,-0.673 3.21,-9.035 2.548,-11.94 z"
   id="path214"
   inkscape:connector-curvature="0" />
</g>
<g
   id="g218"
   transform="matrix(1.8525298,0,0,1.5181597,-55.061157,1.754438e-4)">
</g>
<g
   id="g220"
   transform="matrix(1.8525298,0,0,1.5181597,-55.061157,1.754438e-4)">
</g>
<g
   id="g222"
   transform="matrix(1.8525298,0,0,1.5181597,-55.061157,1.754438e-4)">
</g>
<g
   id="g224"
   transform="matrix(1.8525298,0,0,1.5181597,-55.061157,1.754438e-4)">
</g>
<g
   id="g226"
   transform="matrix(1.8525298,0,0,1.5181597,-55.061157,1.754438e-4)">
</g>
<g
   id="g228"
   transform="matrix(1.8525298,0,0,1.5181597,-55.061157,1.754438e-4)">
</g>
<g
   id="g230"
   transform="matrix(1.8525298,0,0,1.5181597,-55.061157,1.754438e-4)">
</g>
<g
   id="g232"
   transform="matrix(1.8525298,0,0,1.5181597,-55.061157,1.754438e-4)">
</g>
<g
   id="g234"
   transform="matrix(1.8525298,0,0,1.5181597,-55.061157,1.754438e-4)">
</g>
<g
   id="g236"
   transform="matrix(1.8525298,0,0,1.5181597,-55.061157,1.754438e-4)">
</g>
<g
   id="g238"
   transform="matrix(1.8525298,0,0,1.5181597,-55.061157,1.754438e-4)">
</g>
<g
   id="g240"
   transform="matrix(1.8525298,0,0,1.5181597,-55.061157,1.754438e-4)">
</g>
<g
   id="g242"
   transform="matrix(1.8525298,0,0,1.5181597,-55.061157,1.754438e-4)">
</g>
<g
   id="g244"
   transform="matrix(1.8525298,0,0,1.5181597,-55.061157,1.754438e-4)">
</g>
<g
   id="g246"
   transform="matrix(1.8525298,0,0,1.5181597,-55.061157,1.754438e-4)">
</g>
</svg>