<?xml version="1.0" encoding="iso-8859-1"?>
<!-- Generator: Adobe Illustrator 16.0.0, SVG Export Plug-In . SVG Version: 6.00 Build 0)  -->
<!DOCTYPE svg PUBLIC "-//W3C//DTD SVG 1.1//EN" "http://www.w3.org/Graphics/SVG/1.1/DTD/svg11.dtd">
<svg version="1.1" id="Capa_1" xmlns="http://www.w3.org/2000/svg" xmlns:xlink="http://www.w3.org/1999/xlink" x="0px" y="0px"
	 viewBox="0 0 470 470" style="enable-background:new 0 0 470 470;"
	 xml:space="preserve">
<g>
	<path d="M270.252,220.692c-1.9,3.692-4.759,6.68-8.508,8.425c-10.807,5.049-24.726-1.91-31.09-15.545
		c-6.369-13.634-2.775-28.774,8.031-33.823c4.966-2.319,10.595-2.076,15.846,0.166c-8.928-34.989-42.793-40.975-56.245-41.966
		l37.235,162.492C273.674,280.852,276.042,247.256,270.252,220.692z"/>
	<path d="M168.442,26.047l3.648-0.826c1.424-0.329,2.32-1.745,1.999-3.177c-0.326-1.426-1.729-2.322-3.177-1.999l-3.659,0.826
		l-0.678-2.951l4.282-0.976c1.427-0.329,2.325-1.745,2.002-3.177c-0.324-1.427-1.725-2.312-3.178-1.999l-4.295,0.976l-1.962-8.549
		c-0.668-2.905-3.562-4.725-6.467-4.057c-2.908,0.67-4.72,3.56-4.057,6.465l1.958,8.526l-3.283,0.753
		c-1.427,0.329-2.322,1.745-1.999,3.177c0.28,1.23,1.373,2.061,2.582,2.061c0.197,0,0.394-0.021,0.59-0.062l3.301-0.748l0.681,2.954
		l-3.93,0.891c-1.427,0.329-2.322,1.745-1.999,3.177c0.28,1.229,1.373,2.061,2.582,2.061c0.197,0,0.394-0.021,0.59-0.062
		l3.938-0.891l17.199,75.069l-38.737,22.266l-16.443-10.255c11.104,1.761,23.511-3.07,31.726-13.525
		c11.48-14.625,10.382-34.657-2.457-44.736c-12.836-10.082-32.555-6.395-44.04,8.229c-8.665,11.034-10.159,25.145-4.857,35.739
		c-9.864,10.136-34.471,38.988-41.79,80.9c-0.502,2.868-0.885,5.83-1.165,8.87l-0.456,0.549c0.117,0.099,0.249,0.202,0.37,0.311
		c-4.401,50.647,19.084,121.878,20.151,125.078l20.482-6.825c-0.223-0.657-18.377-55.778-19.561-100.27
		c11.799,10.383,24.413,22.054,29.933,28.946c5.97,7.467,7.71,38.717,5.89,63.4l21.533,1.59c0.738-9.973,3.703-60.646-10.556-78.479
		c-9.116-11.387-31.726-31.167-44.806-42.279c3.734-18.657,11.537-34.315,19.157-46.028l4.629,15.689
		c0.829,2.812,3.49,6.385,5.945,7.982l37.153,24.21c-0.811,5.438-0.588,17.803-0.026,21.153c2.63-1.44,5.53-2.248,8.585-2.248
		c11.925,0,21.588,12.194,21.588,27.242s-9.663,27.242-21.588,27.242c-1.178,0-2.322-0.145-3.451-0.373
		c7.788,23.747,25.64,46.287,65.205,46.977l-37.35-162.989c-8.406,4.717-21.981,14.268-29.018,29.579l-33.661-22.438l-6.75-22.864
		l20.834,12.992c2.485,1.548,6.558,1.623,9.098,0.163l37.674-21.65l46.287,202.022c0.574,2.506,4.303,9.667,6.763,9.667
		c0.398,0,0.808-0.046,1.217-0.135c2.904-0.673,3.21-9.035,2.548-11.94L168.442,26.047z"/>
</g>
<g>
</g>
<g>
</g>
<g>
</g>
<g>
</g>
<g>
</g>
<g>
</g>
<g>
</g>
<g>
</g>
<g>
</g>
<g>
</g>
<g>
</g>
<g>
</g>
<g>
</g>
<g>
</g>
<g>
</g>
</svg>
