<?xml version="1.0" encoding="UTF-8" standalone="no"?>
<!-- Generator: Adobe Illustrator 19.0.0, SVG Export Plug-In . SVG Version: 6.00 Build 0)  -->

<svg
   xmlns:dc="http://purl.org/dc/elements/1.1/"
   xmlns:cc="http://creativecommons.org/ns#"
   xmlns:rdf="http://www.w3.org/1999/02/22-rdf-syntax-ns#"
   xmlns:svg="http://www.w3.org/2000/svg"
   xmlns="http://www.w3.org/2000/svg"
   xmlns:sodipodi="http://sodipodi.sourceforge.net/DTD/sodipodi-0.dtd"
   xmlns:inkscape="http://www.inkscape.org/namespaces/inkscape"
   version="1.1"
   id="Layer_1"
   x="0px"
   y="0px"
   viewBox="0 0 500 500"
   xml:space="preserve"
   sodipodi:docname="Cello.svg"
   width="500"
   height="500"
   inkscape:version="0.92.3 (2405546, 2018-03-11)"><metadata
   id="metadata359"><rdf:RDF><cc:Work
       rdf:about=""><dc:format>image/svg+xml</dc:format><dc:type
         rdf:resource="http://purl.org/dc/dcmitype/StillImage" /><dc:title></dc:title></cc:Work></rdf:RDF></metadata><defs
   id="defs357" /><sodipodi:namedview
   pagecolor="#ffffff"
   bordercolor="#666666"
   borderopacity="1"
   objecttolerance="10"
   gridtolerance="10"
   guidetolerance="10"
   inkscape:pageopacity="0"
   inkscape:pageshadow="2"
   inkscape:window-width="958"
   inkscape:window-height="1008"
   id="namedview355"
   showgrid="false"
   inkscape:zoom="0.50212766"
   inkscape:cx="235"
   inkscape:cy="235"
   inkscape:window-x="-7"
   inkscape:window-y="0"
   inkscape:window-maximized="0"
   inkscape:current-layer="Layer_1" />
<g
   id="g322"
   transform="matrix(1.0599182,0,0,1.0676903,-1.4979559e-5,-1.833662)">
	<g
   id="g320">
		<g
   id="g318">
			<path
   d="m 140.115,155.097 c 1.464,1.465 3.384,2.197 5.303,2.197 1.919,0 3.839,-0.732 5.303,-2.197 2.929,-2.929 2.929,-7.677 0,-10.606 l -46.376,-46.376 10.607,-10.607 48.589,48.589 c 2.929,2.93 7.678,2.929 10.606,0 2.929,-2.929 2.929,-7.677 0,-10.606 L 120.255,71.598 c -14.621,-14.621 -38.412,-14.621 -53.033,0 -1.407,1.407 -2.197,3.314 -2.197,5.303 0,1.989 0.79,3.897 2.197,5.303 z M 103.426,77.821 93.739,87.508 84.041,77.81 c 6.112,-2.912 13.272,-2.9 19.385,0.011 z"
   id="path308"
   inkscape:connector-curvature="0" />
			<path
   d="m 385.982,379.75 c 9.625,-14.552 8.036,-34.39 -4.77,-47.196 L 344.528,295.87 c -2.929,-2.929 -7.678,-2.929 -10.606,0 -2.929,2.929 -2.929,7.677 0,10.606 l 31.38,31.38 -10.607,10.607 -29.173,-29.173 c -2.929,-2.929 -7.678,-2.929 -10.606,0 -2.929,2.929 -2.929,7.677 0,10.606 l 34.474,34.474 c 0.005,0.005 21.211,21.211 21.211,21.211 0.01,0.01 23.305,23.305 23.305,23.305 1.464,1.465 3.384,2.197 5.303,2.197 1.919,0 3.839,-0.732 5.303,-2.197 2.929,-2.929 2.929,-7.677 0,-10.606 z m -11.002,-11.001 -9.679,-9.679 9.679,-9.678 c 2.906,6.108 2.906,13.248 0,19.357 z"
   id="path310"
   inkscape:connector-curvature="0" />
			<path
   d="M 469.538,61.598 452.649,44.709 466.18,30.636 c 2.832,-2.946 2.785,-7.616 -0.105,-10.504 L 449.839,3.912 c -2.89,-2.887 -7.558,-2.931 -10.5,-0.1 L 414.463,27.736 397.814,11.087 c -2.929,-2.929 -7.678,-2.929 -10.606,0 -2.929,2.929 -2.929,7.677 0,10.606 l 16.442,16.442 -12.155,11.69 -16.21,-16.21 c -2.929,-2.929 -7.678,-2.929 -10.606,0 -2.929,2.929 -2.929,7.678 0,10.606 l 16.003,16.003 -93.006,89.448 c -18.189,-11.277 -39.681,-16.554 -61.212,-14.882 -23.923,1.859 -46.432,12.216 -63.38,29.164 l -16.143,16.142 c -2.517,2.517 -2.918,6.455 -0.961,9.428 7.964,12.096 4.602,28.417 -7.494,36.381 l -22.039,14.51 c -5.86,3.857 -12.873,5.203 -19.743,3.787 -6.871,-1.416 -12.78,-5.422 -16.638,-11.282 -1.24,-1.883 -3.261,-3.108 -5.503,-3.337 -2.246,-0.227 -4.47,0.564 -6.064,2.158 l -23.875,23.876 c -22.675,22.675 -35.162,52.822 -35.162,84.889 0,29.553 10.614,57.471 30.027,79.417 L 2.197,457.215 c -2.929,2.929 -2.929,7.677 0,10.606 1.464,1.465 3.384,2.197 5.303,2.197 1.919,0 3.839,-0.732 5.303,-2.197 l 37.291,-37.292 c 21.945,19.413 49.864,30.027 79.417,30.027 32.066,0 62.214,-12.487 84.889,-35.162 l 23.875,-23.875 c 1.594,-1.594 2.387,-3.821 2.158,-6.064 -0.229,-2.243 -1.454,-4.264 -3.337,-5.504 C 225,381.987 221.638,365.667 229.601,353.57 l 14.51,-22.039 c 7.964,-12.096 24.285,-15.458 36.381,-7.495 2.973,1.958 6.912,1.556 9.427,-0.961 l 16.142,-16.142 c 16.951,-16.951 27.309,-39.464 29.166,-63.391 1.67,-21.534 -3.61,-43.03 -14.894,-61.219 l 99.83,-103.83 16.239,16.238 c 1.464,1.465 3.384,2.197 5.303,2.197 1.919,0 3.839,-0.732 5.303,-2.197 2.929,-2.929 2.929,-7.678 0,-10.606 L 430.563,67.68 442.251,55.524 458.932,72.205 c 1.464,1.465 3.384,2.197 5.303,2.197 1.919,0 3.839,-0.732 5.303,-2.197 2.929,-2.93 2.929,-7.678 0,-10.607 z M 295.456,296.328 283.3,308.484 c -18.204,-8.389 -40.364,-2.443 -51.716,14.8 l -14.51,22.039 c -10.813,16.424 -8.336,37.804 4.802,51.384 l -18.082,18.082 c -19.842,19.841 -46.222,30.769 -74.282,30.769 -28.06,0 -54.441,-10.928 -74.282,-30.77 -19.842,-19.842 -30.769,-46.222 -30.769,-74.282 0,-28.06 10.927,-54.441 30.769,-74.282 l 18.075,-18.075 c 5.574,5.413 12.58,9.14 20.373,10.745 10.797,2.223 21.812,0.111 31.017,-5.95 l 22.039,-14.51 c 17.243,-11.352 23.189,-33.511 14.799,-51.716 l 12.157,-12.157 c 27.542,-27.542 69.467,-32.873 102.778,-14.11 l -95.923,92.254 c -1.452,1.396 -2.281,3.318 -2.301,5.333 -0.02,2.014 0.772,3.952 2.196,5.376 l 26.163,26.163 c 1.407,1.407 3.315,2.197 5.303,2.197 0.024,0 0.049,0 0.074,0 2.015,-0.02 3.937,-0.849 5.333,-2.302 l 92.244,-95.94 c 18.774,33.314 13.447,75.247 -14.101,102.796 z M 211.801,273.562 196.454,258.215 373.263,88.17 l 8.56,8.559 z m 180.42,-187.648 -8.145,-8.144 60.361,-58.051 5.83,5.824 z"
   id="path312"
   inkscape:connector-curvature="0" />
			<path
   d="m 148.449,288.335 c -2.929,-2.929 -7.678,-2.929 -10.606,0 -2.929,2.929 -2.929,7.677 0,10.606 l 33.234,33.234 c 1.464,1.465 3.384,2.197 5.303,2.197 1.919,0 3.839,-0.732 5.303,-2.197 2.929,-2.929 2.929,-7.677 0,-10.606 z"
   id="path314"
   inkscape:connector-curvature="0" />
			<path
   d="m 109.387,327.397 c -1.519,-1.519 -3.618,-2.313 -5.76,-2.183 -2.145,0.131 -4.129,1.175 -5.452,2.868 l -42.625,54.54 c -2.551,3.264 -1.973,7.977 1.291,10.528 3.263,2.55 7.976,1.972 10.527,-1.291 l 37.406,-47.862 21.248,21.247 -47.863,37.406 c -3.264,2.551 -3.842,7.264 -1.291,10.528 1.479,1.893 3.685,2.882 5.915,2.882 1.615,0 3.242,-0.519 4.613,-1.591 l 54.54,-42.625 c 1.693,-1.323 2.737,-3.308 2.868,-5.452 0.131,-2.144 -0.664,-4.241 -2.183,-5.76 z"
   id="path316"
   inkscape:connector-curvature="0" />
		</g>
	</g>
</g>
<g
   id="g324"
   transform="matrix(1.0599182,0,0,1.0676903,-1.4979559e-5,-1.833662)">
</g>
<g
   id="g326"
   transform="matrix(1.0599182,0,0,1.0676903,-1.4979559e-5,-1.833662)">
</g>
<g
   id="g328"
   transform="matrix(1.0599182,0,0,1.0676903,-1.4979559e-5,-1.833662)">
</g>
<g
   id="g330"
   transform="matrix(1.0599182,0,0,1.0676903,-1.4979559e-5,-1.833662)">
</g>
<g
   id="g332"
   transform="matrix(1.0599182,0,0,1.0676903,-1.4979559e-5,-1.833662)">
</g>
<g
   id="g334"
   transform="matrix(1.0599182,0,0,1.0676903,-1.4979559e-5,-1.833662)">
</g>
<g
   id="g336"
   transform="matrix(1.0599182,0,0,1.0676903,-1.4979559e-5,-1.833662)">
</g>
<g
   id="g338"
   transform="matrix(1.0599182,0,0,1.0676903,-1.4979559e-5,-1.833662)">
</g>
<g
   id="g340"
   transform="matrix(1.0599182,0,0,1.0676903,-1.4979559e-5,-1.833662)">
</g>
<g
   id="g342"
   transform="matrix(1.0599182,0,0,1.0676903,-1.4979559e-5,-1.833662)">
</g>
<g
   id="g344"
   transform="matrix(1.0599182,0,0,1.0676903,-1.4979559e-5,-1.833662)">
</g>
<g
   id="g346"
   transform="matrix(1.0599182,0,0,1.0676903,-1.4979559e-5,-1.833662)">
</g>
<g
   id="g348"
   transform="matrix(1.0599182,0,0,1.0676903,-1.4979559e-5,-1.833662)">
</g>
<g
   id="g350"
   transform="matrix(1.0599182,0,0,1.0676903,-1.4979559e-5,-1.833662)">
</g>
<g
   id="g352"
   transform="matrix(1.0599182,0,0,1.0676903,-1.4979559e-5,-1.833662)">
</g>
</svg>