<?xml version="1.0" encoding="iso-8859-1"?>
<!-- Generator: Adobe Illustrator 19.0.0, SVG Export Plug-In . SVG Version: 6.00 Build 0)  -->
<svg version="1.1" id="Layer_1" xmlns="http://www.w3.org/2000/svg" xmlns:xlink="http://www.w3.org/1999/xlink" x="0px" y="0px"
	 viewBox="0 0 470 470" style="enable-background:new 0 0 470 470;" xml:space="preserve">
<g>
	<g>
		<g>
			<path d="M140.115,155.097c1.464,1.465,3.384,2.197,5.303,2.197c1.919,0,3.839-0.732,5.303-2.197
				c2.929-2.929,2.929-7.677,0-10.606l-46.376-46.376l10.607-10.607l48.589,48.589c2.929,2.93,7.678,2.929,10.606,0
				c2.929-2.929,2.929-7.677,0-10.606l-53.892-53.893c-14.621-14.621-38.412-14.621-53.033,0c-1.407,1.407-2.197,3.314-2.197,5.303
				s0.79,3.897,2.197,5.303L140.115,155.097z M103.426,77.821l-9.687,9.687l-9.698-9.698C90.153,74.898,97.313,74.91,103.426,77.821
				z"/>
			<path d="M385.982,379.75c9.625-14.552,8.036-34.39-4.77-47.196l-36.684-36.684c-2.929-2.929-7.678-2.929-10.606,0
				c-2.929,2.929-2.929,7.677,0,10.606l31.38,31.38l-10.607,10.607l-29.173-29.173c-2.929-2.929-7.678-2.929-10.606,0
				c-2.929,2.929-2.929,7.677,0,10.606l34.474,34.474c0.005,0.005,21.211,21.211,21.211,21.211
				c0.01,0.01,23.305,23.305,23.305,23.305c1.464,1.465,3.384,2.197,5.303,2.197s3.839-0.732,5.303-2.197
				c2.929-2.929,2.929-7.677,0-10.606L385.982,379.75z M374.98,368.749l-9.679-9.679l9.679-9.678
				C377.886,355.5,377.886,362.64,374.98,368.749z"/>
			<path d="M469.538,61.598l-16.889-16.889l13.531-14.073c2.832-2.946,2.785-7.616-0.105-10.504l-16.236-16.22
				c-2.89-2.887-7.558-2.931-10.5-0.1l-24.876,23.924l-16.649-16.649c-2.929-2.929-7.678-2.929-10.606,0
				c-2.929,2.929-2.929,7.677,0,10.606l16.442,16.442l-12.155,11.69l-16.21-16.21c-2.929-2.929-7.678-2.929-10.606,0
				c-2.929,2.929-2.929,7.678,0,10.606l16.003,16.003l-93.006,89.448c-18.189-11.277-39.681-16.554-61.212-14.882
				c-23.923,1.859-46.432,12.216-63.38,29.164l-16.143,16.142c-2.517,2.517-2.918,6.455-0.961,9.428
				c7.964,12.096,4.602,28.417-7.494,36.381l-22.039,14.51c-5.86,3.857-12.873,5.203-19.743,3.787
				c-6.871-1.416-12.78-5.422-16.638-11.282c-1.24-1.883-3.261-3.108-5.503-3.337c-2.246-0.227-4.47,0.564-6.064,2.158
				l-23.875,23.876c-22.675,22.675-35.162,52.822-35.162,84.889c0,29.553,10.614,57.471,30.027,79.417L2.197,457.215
				c-2.929,2.929-2.929,7.677,0,10.606c1.464,1.465,3.384,2.197,5.303,2.197s3.839-0.732,5.303-2.197l37.291-37.292
				c21.945,19.413,49.864,30.027,79.417,30.027c32.066,0,62.214-12.487,84.889-35.162l23.875-23.875
				c1.594-1.594,2.387-3.821,2.158-6.064c-0.229-2.243-1.454-4.264-3.337-5.504c-12.096-7.964-15.458-24.284-7.495-36.381
				l14.51-22.039c7.964-12.096,24.285-15.458,36.381-7.495c2.973,1.958,6.912,1.556,9.427-0.961l16.142-16.142
				c16.951-16.951,27.309-39.464,29.166-63.391c1.67-21.534-3.61-43.03-14.894-61.219l99.83-103.83l16.239,16.238
				c1.464,1.465,3.384,2.197,5.303,2.197s3.839-0.732,5.303-2.197c2.929-2.929,2.929-7.678,0-10.606L430.563,67.68l11.688-12.156
				l16.681,16.681c1.464,1.465,3.384,2.197,5.303,2.197s3.839-0.732,5.303-2.197C472.467,69.275,472.467,64.527,469.538,61.598z
				 M295.456,296.328L283.3,308.484c-18.204-8.389-40.364-2.443-51.716,14.8l-14.51,22.039
				c-10.813,16.424-8.336,37.804,4.802,51.384l-18.082,18.082c-19.842,19.841-46.222,30.769-74.282,30.769
				s-54.441-10.928-74.282-30.77c-19.842-19.842-30.769-46.222-30.769-74.282s10.927-54.441,30.769-74.282l18.075-18.075
				c5.574,5.413,12.58,9.14,20.373,10.745c10.797,2.223,21.812,0.111,31.017-5.95l22.039-14.51
				c17.243-11.352,23.189-33.511,14.799-51.716l12.157-12.157c27.542-27.542,69.467-32.873,102.778-14.11l-95.923,92.254
				c-1.452,1.396-2.281,3.318-2.301,5.333c-0.02,2.014,0.772,3.952,2.196,5.376l26.163,26.163c1.407,1.407,3.315,2.197,5.303,2.197
				c0.024,0,0.049,0,0.074,0c2.015-0.02,3.937-0.849,5.333-2.302l92.244-95.94C328.331,226.846,323.004,268.779,295.456,296.328z
				 M211.801,273.562l-15.347-15.347L373.263,88.17l8.56,8.559L211.801,273.562z M392.221,85.914l-8.145-8.144l60.361-58.051
				l5.83,5.824L392.221,85.914z"/>
			<path d="M148.449,288.335c-2.929-2.929-7.678-2.929-10.606,0c-2.929,2.929-2.929,7.677,0,10.606l33.234,33.234
				c1.464,1.465,3.384,2.197,5.303,2.197s3.839-0.732,5.303-2.197c2.929-2.929,2.929-7.677,0-10.606L148.449,288.335z"/>
			<path d="M109.387,327.397c-1.519-1.519-3.618-2.313-5.76-2.183c-2.145,0.131-4.129,1.175-5.452,2.868l-42.625,54.54
				c-2.551,3.264-1.973,7.977,1.291,10.528c3.263,2.55,7.976,1.972,10.527-1.291l37.406-47.862l21.248,21.247L78.159,402.65
				c-3.264,2.551-3.842,7.264-1.291,10.528c1.479,1.893,3.685,2.882,5.915,2.882c1.615,0,3.242-0.519,4.613-1.591l54.54-42.625
				c1.693-1.323,2.737-3.308,2.868-5.452c0.131-2.144-0.664-4.241-2.183-5.76L109.387,327.397z"/>
		</g>
	</g>
</g>
<g>
</g>
<g>
</g>
<g>
</g>
<g>
</g>
<g>
</g>
<g>
</g>
<g>
</g>
<g>
</g>
<g>
</g>
<g>
</g>
<g>
</g>
<g>
</g>
<g>
</g>
<g>
</g>
<g>
</g>
</svg>
