<?xml version="1.0" encoding="iso-8859-1"?>
<!-- Generator: Adobe Illustrator 19.0.0, SVG Export Plug-In . SVG Version: 6.00 Build 0)  -->
<svg version="1.1" id="Capa_1" xmlns="http://www.w3.org/2000/svg" xmlns:xlink="http://www.w3.org/1999/xlink" x="0px" y="0px"
	 viewBox="0 0 511.999 511.999" style="enable-background:new 0 0 511.999 511.999;" xml:space="preserve">
<g>
	<g>
		<path d="M509.801,18.512L493.487,2.197c-2.484-2.484-6.36-2.913-9.326-1.026l-24.354,15.478l-2.057-2.057
			c-2.929-2.929-7.677-2.93-10.607,0l-32.447,32.447c-1.406,1.406-2.196,3.314-2.196,5.303s0.79,3.897,2.196,5.303l1.005,1.005
			l-45.429,45.43c-2.206,0.341-4.409,0.91-6.58,1.726c-11.512,4.332-19.181,14.454-20.964,25.818l-40.112,40.112
			c-2.224,0.348-4.429,0.921-6.585,1.732c-8.246,3.103-14.791,9.231-18.428,17.257c-1.256,2.772-2.104,5.657-2.56,8.584
			l-40.092,40.093c-2.207,0.341-4.41,0.91-6.581,1.727c-8.246,3.104-14.791,9.232-18.428,17.257
			c-1.256,2.772-2.104,5.657-2.56,8.584l-16.311,16.311c-2.929,2.929-2.929,7.678,0,10.606c1.465,1.464,3.385,2.197,5.304,2.197
			s3.839-0.732,5.304-2.197l8.271-8.271c3.297,7.303,9.057,13.093,16.422,16.431c0.003,0.001,0.007,0.003,0.01,0.004l-52.855,52.855
			l-16.433-16.433l21.739-21.74c2.929-2.929,2.929-7.678,0-10.606c-2.93-2.929-7.678-2.929-10.607,0l-21.739,21.739l-2.808-2.808
			c-2.93-2.929-7.678-2.929-10.607,0l-27.039,27.039c-1.406,1.406-2.196,3.314-2.196,5.303s0.79,3.897,2.196,5.303l1.938,1.938
			c-39.161,33.007-73.514,49.017-92.723,42.973c-7.554-2.37-11.725,6.156-14.485,11.799c-1.408,2.878-0.832,6.333,1.434,8.599
			l81.79,81.79c1.439,1.439,3.358,2.197,5.306,2.197c1.108,0,2.226-0.246,3.269-0.751c5.463-2.647,14.605-7.077,11.648-14.916
			c-1.854-4.981-2.437-10.698-1.729-16.992c0.463-4.116-2.499-7.828-6.615-8.291c-4.129-0.458-7.828,2.5-8.291,6.615
			c-0.577,5.136-0.507,10.056,0.21,14.721l-68.777-68.772c32.097,3.346,73.743-26.413,99.608-48.325l17.419,17.419
			c-12.232,13.358-27.176,31.779-37.342,51.43c-1.903,3.679-0.464,8.205,3.215,10.108c1.102,0.57,2.279,0.84,3.44,0.84
			c2.714,0,5.334-1.478,6.667-4.055c9.589-18.535,24.272-36.304,34.641-47.702l2.638,2.638c1.465,1.464,3.385,2.197,5.304,2.197
			s3.839-0.732,5.304-2.197l27.039-27.039c1.406-1.406,2.196-3.314,2.196-5.303s-0.79-3.897-2.196-5.303l-2.808-2.808l60.913-60.913
			c2.215-0.348,4.412-0.918,6.559-1.726c11.505-4.329,19.17-14.44,20.96-25.794l40.141-40.141c2.216-0.348,4.413-0.918,6.56-1.726
			c8.246-3.103,14.791-9.231,18.428-17.257c1.253-2.765,2.099-5.641,2.556-8.561l40.125-40.126c2.197-0.342,4.391-0.904,6.552-1.717
			c11.504-4.329,19.169-14.44,20.959-25.793l15.284-15.284c2.929-2.929,2.929-7.678,0-10.606c-2.93-2.929-7.678-2.929-10.607,0
			l-7.21,7.21c-3.401-7.525-9.352-13.221-16.436-16.431l37.391-37.391l16.434,16.434l-7.558,7.559
			c-2.929,2.929-2.929,7.678,0.001,10.607c2.928,2.929,7.677,2.928,10.606,0l7.558-7.558l1.005,1.005
			c1.465,1.465,3.384,2.197,5.304,2.197c1.919,0,3.839-0.732,5.304-2.197l32.447-32.447c1.406-1.406,2.196-3.314,2.196-5.303
			s-0.79-3.897-2.196-5.303l-2.058-2.058l15.478-24.353C512.713,24.873,512.286,20.997,509.801,18.512z M154.598,390.057
			l-32.656-32.656l16.433-16.433l32.656,32.656L154.598,390.057z M246.322,288.835c-1.657,0.623-3.366,0.991-5.083,1.113
			c-0.098,0.005-0.195,0.005-0.293,0.014c-2.848,0.155-5.71-0.367-8.383-1.578c-4.376-1.983-7.717-5.552-9.409-10.048
			c-1.692-4.496-1.532-9.383,0.451-13.759c1.982-4.376,5.551-7.718,10.048-9.41c2.079-0.783,4.214-1.153,6.314-1.153
			c7.277,0,14.144,4.45,16.854,11.652C260.315,274.949,255.604,285.342,246.322,288.835z M270.031,258.4
			c-3.401-7.524-9.353-13.22-16.436-16.429l24.016-24.016c3.297,7.303,9.057,13.093,16.422,16.431
			c0.003,0.001,0.006,0.002,0.009,0.004L270.031,258.4z M324.031,211.764c-1.983,4.377-5.551,7.718-10.048,9.41
			c-1.662,0.625-3.377,0.994-5.1,1.115c-0.08,0.004-0.161,0.005-0.241,0.012c-2.86,0.162-5.734-0.362-8.418-1.578
			c-4.376-1.983-7.717-5.551-9.409-10.048c-1.692-4.497-1.532-9.383,0.451-13.758c1.982-4.376,5.551-7.718,10.048-9.41
			c2.062-0.776,4.204-1.162,6.343-1.162c2.526,0,5.046,0.54,7.416,1.613c4.376,1.983,7.717,5.552,9.409,10.048
			C326.174,202.502,326.014,207.389,324.031,211.764z M337.692,190.74c-3.296-7.308-9.057-13.102-16.424-16.442l24.009-24.008
			c3.405,7.525,9.365,13.207,16.453,16.413L337.692,190.74z M392.142,130.345c3.494,9.282-1.216,19.676-10.498,23.169
			c-1.738,0.655-3.515,1.021-5.278,1.124c-0.006,0-0.012,0-0.018,0.001c-7.647,0.438-15.036-4.086-17.873-11.624
			c-3.493-9.282,1.218-19.676,10.5-23.169c2.079-0.783,4.214-1.153,6.314-1.153C382.566,118.693,389.433,123.143,392.142,130.345z
			 M459.656,81.393l-1-1c-0.002-0.002-0.003-0.003-0.005-0.005l-27.04-27.04c-0.002-0.002-0.003-0.003-0.005-0.005l-1.001-1.001
			l21.841-21.84l0.997,0.997c0.003,0.003,0.005,0.006,0.008,0.009l27.039,27.039c0.003,0.003,0.007,0.006,0.01,0.009l0.997,0.997
			L459.656,81.393z M484.483,41.324l-13.81-13.809l16.458-10.46l7.812,7.811L484.483,41.324z"/>
	</g>
</g>
<g>
</g>
<g>
</g>
<g>
</g>
<g>
</g>
<g>
</g>
<g>
</g>
<g>
</g>
<g>
</g>
<g>
</g>
<g>
</g>
<g>
</g>
<g>
</g>
<g>
</g>
<g>
</g>
<g>
</g>
</svg>
