<?xml version="1.0" encoding="UTF-8" standalone="no"?>
<!-- Generator: Adobe Illustrator 19.0.0, SVG Export Plug-In . SVG Version: 6.00 Build 0)  -->

<svg
   xmlns:dc="http://purl.org/dc/elements/1.1/"
   xmlns:cc="http://creativecommons.org/ns#"
   xmlns:rdf="http://www.w3.org/1999/02/22-rdf-syntax-ns#"
   xmlns:svg="http://www.w3.org/2000/svg"
   xmlns="http://www.w3.org/2000/svg"
   xmlns:sodipodi="http://sodipodi.sourceforge.net/DTD/sodipodi-0.dtd"
   xmlns:inkscape="http://www.inkscape.org/namespaces/inkscape"
   version="1.1"
   id="Capa_1"
   x="0px"
   y="0px"
   viewBox="0 0 500.00001 500.00001"
   xml:space="preserve"
   sodipodi:docname="Clarinet.svg"
   width="500"
   height="500"
   inkscape:version="0.92.3 (2405546, 2018-03-11)"><metadata
   id="metadata445"><rdf:RDF><cc:Work
       rdf:about=""><dc:format>image/svg+xml</dc:format><dc:type
         rdf:resource="http://purl.org/dc/dcmitype/StillImage" /><dc:title></dc:title></cc:Work></rdf:RDF></metadata><defs
   id="defs443" /><sodipodi:namedview
   pagecolor="#ffffff"
   bordercolor="#666666"
   borderopacity="1"
   objecttolerance="10"
   gridtolerance="10"
   guidetolerance="10"
   inkscape:pageopacity="0"
   inkscape:pageshadow="2"
   inkscape:window-width="958"
   inkscape:window-height="1008"
   id="namedview441"
   showgrid="false"
   inkscape:zoom="0.46093841"
   inkscape:cx="255.9995"
   inkscape:cy="255.9995"
   inkscape:window-x="-7"
   inkscape:window-y="0"
   inkscape:window-maximized="0"
   inkscape:current-layer="Capa_1" />
<g
   id="g408"
   transform="matrix(0.97656487,0,0,0.97656368,-2.3834694e-6,3.8007218e-4)">
	<g
   id="g406">
		<path
   d="M 509.801,18.512 493.487,2.197 c -2.484,-2.484 -6.36,-2.913 -9.326,-1.026 l -24.354,15.478 -2.057,-2.057 c -2.929,-2.929 -7.677,-2.93 -10.607,0 l -32.447,32.447 c -1.406,1.406 -2.196,3.314 -2.196,5.303 0,1.989 0.79,3.897 2.196,5.303 l 1.005,1.005 -45.429,45.43 c -2.206,0.341 -4.409,0.91 -6.58,1.726 -11.512,4.332 -19.181,14.454 -20.964,25.818 l -40.112,40.112 c -2.224,0.348 -4.429,0.921 -6.585,1.732 -8.246,3.103 -14.791,9.231 -18.428,17.257 -1.256,2.772 -2.104,5.657 -2.56,8.584 l -40.092,40.093 c -2.207,0.341 -4.41,0.91 -6.581,1.727 -8.246,3.104 -14.791,9.232 -18.428,17.257 -1.256,2.772 -2.104,5.657 -2.56,8.584 l -16.311,16.311 c -2.929,2.929 -2.929,7.678 0,10.606 1.465,1.464 3.385,2.197 5.304,2.197 1.919,0 3.839,-0.732 5.304,-2.197 l 8.271,-8.271 c 3.297,7.303 9.057,13.093 16.422,16.431 0.003,10e-4 0.007,0.003 0.01,0.004 l -52.855,52.855 -16.433,-16.433 21.739,-21.74 c 2.929,-2.929 2.929,-7.678 0,-10.606 -2.93,-2.929 -7.678,-2.929 -10.607,0 l -21.739,21.739 -2.808,-2.808 c -2.93,-2.929 -7.678,-2.929 -10.607,0 l -27.039,27.039 c -1.406,1.406 -2.196,3.314 -2.196,5.303 0,1.989 0.79,3.897 2.196,5.303 l 1.938,1.938 c -39.161,33.007 -73.514,49.017 -92.723,42.973 -7.554,-2.37 -11.725,6.156 -14.485,11.799 -1.408,2.878 -0.832,6.333 1.434,8.599 l 81.79,81.79 c 1.439,1.439 3.358,2.197 5.306,2.197 1.108,0 2.226,-0.246 3.269,-0.751 5.463,-2.647 14.605,-7.077 11.648,-14.916 -1.854,-4.981 -2.437,-10.698 -1.729,-16.992 0.463,-4.116 -2.499,-7.828 -6.615,-8.291 -4.129,-0.458 -7.828,2.5 -8.291,6.615 -0.577,5.136 -0.507,10.056 0.21,14.721 L 19.008,423.613 c 32.097,3.346 73.743,-26.413 99.608,-48.325 l 17.419,17.419 c -12.232,13.358 -27.176,31.779 -37.342,51.43 -1.903,3.679 -0.464,8.205 3.215,10.108 1.102,0.57 2.279,0.84 3.44,0.84 2.714,0 5.334,-1.478 6.667,-4.055 9.589,-18.535 24.272,-36.304 34.641,-47.702 l 2.638,2.638 c 1.465,1.464 3.385,2.197 5.304,2.197 1.919,0 3.839,-0.732 5.304,-2.197 l 27.039,-27.039 c 1.406,-1.406 2.196,-3.314 2.196,-5.303 0,-1.989 -0.79,-3.897 -2.196,-5.303 l -2.808,-2.808 60.913,-60.913 c 2.215,-0.348 4.412,-0.918 6.559,-1.726 11.505,-4.329 19.17,-14.44 20.96,-25.794 l 40.141,-40.141 c 2.216,-0.348 4.413,-0.918 6.56,-1.726 8.246,-3.103 14.791,-9.231 18.428,-17.257 1.253,-2.765 2.099,-5.641 2.556,-8.561 l 40.125,-40.126 c 2.197,-0.342 4.391,-0.904 6.552,-1.717 11.504,-4.329 19.169,-14.44 20.959,-25.793 l 15.284,-15.284 c 2.929,-2.929 2.929,-7.678 0,-10.606 -2.93,-2.929 -7.678,-2.929 -10.607,0 l -7.21,7.21 c -3.401,-7.525 -9.352,-13.221 -16.436,-16.431 l 37.391,-37.391 16.434,16.434 -7.558,7.559 c -2.929,2.929 -2.929,7.678 10e-4,10.607 2.928,2.929 7.677,2.928 10.606,0 l 7.558,-7.558 1.005,1.005 c 1.465,1.465 3.384,2.197 5.304,2.197 1.919,0 3.839,-0.732 5.304,-2.197 l 32.447,-32.447 c 1.406,-1.406 2.196,-3.314 2.196,-5.303 0,-1.989 -0.79,-3.897 -2.196,-5.303 l -2.058,-2.058 15.478,-24.353 c 1.884,-2.967 1.457,-6.843 -1.028,-9.328 z m -355.203,371.545 -32.656,-32.656 16.433,-16.433 32.656,32.656 z m 91.724,-101.222 c -1.657,0.623 -3.366,0.991 -5.083,1.113 -0.098,0.005 -0.195,0.005 -0.293,0.014 -2.848,0.155 -5.71,-0.367 -8.383,-1.578 -4.376,-1.983 -7.717,-5.552 -9.409,-10.048 -1.692,-4.496 -1.532,-9.383 0.451,-13.759 1.982,-4.376 5.551,-7.718 10.048,-9.41 2.079,-0.783 4.214,-1.153 6.314,-1.153 7.277,0 14.144,4.45 16.854,11.652 3.494,9.283 -1.217,19.676 -10.499,23.169 z M 270.031,258.4 c -3.401,-7.524 -9.353,-13.22 -16.436,-16.429 l 24.016,-24.016 c 3.297,7.303 9.057,13.093 16.422,16.431 0.003,0.001 0.006,0.002 0.009,0.004 z m 54,-46.636 c -1.983,4.377 -5.551,7.718 -10.048,9.41 -1.662,0.625 -3.377,0.994 -5.1,1.115 -0.08,0.004 -0.161,0.005 -0.241,0.012 -2.86,0.162 -5.734,-0.362 -8.418,-1.578 -4.376,-1.983 -7.717,-5.551 -9.409,-10.048 -1.692,-4.497 -1.532,-9.383 0.451,-13.758 1.982,-4.376 5.551,-7.718 10.048,-9.41 2.062,-0.776 4.204,-1.162 6.343,-1.162 2.526,0 5.046,0.54 7.416,1.613 4.376,1.983 7.717,5.552 9.409,10.048 1.692,4.496 1.532,9.383 -0.451,13.758 z m 13.661,-21.024 c -3.296,-7.308 -9.057,-13.102 -16.424,-16.442 l 24.009,-24.008 c 3.405,7.525 9.365,13.207 16.453,16.413 z m 54.45,-60.395 c 3.494,9.282 -1.216,19.676 -10.498,23.169 -1.738,0.655 -3.515,1.021 -5.278,1.124 -0.006,0 -0.012,0 -0.018,0.001 -7.647,0.438 -15.036,-4.086 -17.873,-11.624 -3.493,-9.282 1.218,-19.676 10.5,-23.169 2.079,-0.783 4.214,-1.153 6.314,-1.153 7.277,0 14.144,4.45 16.853,11.652 z m 67.514,-48.952 -1,-1 c -0.002,-0.002 -0.003,-0.003 -0.005,-0.005 l -27.04,-27.04 c -0.002,-0.002 -0.003,-0.003 -0.005,-0.005 l -1.001,-1.001 21.841,-21.84 0.997,0.997 c 0.003,0.003 0.005,0.006 0.008,0.009 l 27.039,27.039 c 0.003,0.003 0.007,0.006 0.01,0.009 l 0.997,0.997 z m 24.827,-40.069 -13.81,-13.809 16.458,-10.46 7.812,7.811 z"
   id="path404"
   inkscape:connector-curvature="0" />
	</g>
</g>
<g
   id="g410"
   transform="matrix(0.97656487,0,0,0.97656368,-2.3834694e-6,3.8007218e-4)">
</g>
<g
   id="g412"
   transform="matrix(0.97656487,0,0,0.97656368,-2.3834694e-6,3.8007218e-4)">
</g>
<g
   id="g414"
   transform="matrix(0.97656487,0,0,0.97656368,-2.3834694e-6,3.8007218e-4)">
</g>
<g
   id="g416"
   transform="matrix(0.97656487,0,0,0.97656368,-2.3834694e-6,3.8007218e-4)">
</g>
<g
   id="g418"
   transform="matrix(0.97656487,0,0,0.97656368,-2.3834694e-6,3.8007218e-4)">
</g>
<g
   id="g420"
   transform="matrix(0.97656487,0,0,0.97656368,-2.3834694e-6,3.8007218e-4)">
</g>
<g
   id="g422"
   transform="matrix(0.97656487,0,0,0.97656368,-2.3834694e-6,3.8007218e-4)">
</g>
<g
   id="g424"
   transform="matrix(0.97656487,0,0,0.97656368,-2.3834694e-6,3.8007218e-4)">
</g>
<g
   id="g426"
   transform="matrix(0.97656487,0,0,0.97656368,-2.3834694e-6,3.8007218e-4)">
</g>
<g
   id="g428"
   transform="matrix(0.97656487,0,0,0.97656368,-2.3834694e-6,3.8007218e-4)">
</g>
<g
   id="g430"
   transform="matrix(0.97656487,0,0,0.97656368,-2.3834694e-6,3.8007218e-4)">
</g>
<g
   id="g432"
   transform="matrix(0.97656487,0,0,0.97656368,-2.3834694e-6,3.8007218e-4)">
</g>
<g
   id="g434"
   transform="matrix(0.97656487,0,0,0.97656368,-2.3834694e-6,3.8007218e-4)">
</g>
<g
   id="g436"
   transform="matrix(0.97656487,0,0,0.97656368,-2.3834694e-6,3.8007218e-4)">
</g>
<g
   id="g438"
   transform="matrix(0.97656487,0,0,0.97656368,-2.3834694e-6,3.8007218e-4)">
</g>
</svg>