<?xml version="1.0" encoding="UTF-8" standalone="no"?>
<!-- Generator: Adobe Illustrator 19.0.0, SVG Export Plug-In . SVG Version: 6.00 Build 0)  -->

<svg
   xmlns:dc="http://purl.org/dc/elements/1.1/"
   xmlns:cc="http://creativecommons.org/ns#"
   xmlns:rdf="http://www.w3.org/1999/02/22-rdf-syntax-ns#"
   xmlns:svg="http://www.w3.org/2000/svg"
   xmlns="http://www.w3.org/2000/svg"
   xmlns:sodipodi="http://sodipodi.sourceforge.net/DTD/sodipodi-0.dtd"
   xmlns:inkscape="http://www.inkscape.org/namespaces/inkscape"
   version="1.1"
   id="Capa_1"
   x="0px"
   y="0px"
   viewBox="0 0 500 500"
   xml:space="preserve"
   sodipodi:docname="Guitar.svg"
   width="500"
   height="500"
   inkscape:version="0.92.3 (2405546, 2018-03-11)"><metadata
   id="metadata525"><rdf:RDF><cc:Work
       rdf:about=""><dc:format>image/svg+xml</dc:format><dc:type
         rdf:resource="http://purl.org/dc/dcmitype/StillImage" /><dc:title></dc:title></cc:Work></rdf:RDF></metadata><defs
   id="defs523" /><sodipodi:namedview
   pagecolor="#ffffff"
   bordercolor="#666666"
   borderopacity="1"
   objecttolerance="10"
   gridtolerance="10"
   guidetolerance="10"
   inkscape:pageopacity="0"
   inkscape:pageshadow="2"
   inkscape:window-width="958"
   inkscape:window-height="1008"
   id="namedview521"
   showgrid="false"
   inkscape:zoom="0.50212766"
   inkscape:cx="235"
   inkscape:cy="235"
   inkscape:window-x="-7"
   inkscape:window-y="0"
   inkscape:window-maximized="0"
   inkscape:current-layer="Capa_1" />
<g
   id="XMLID_470_"
   transform="matrix(1.0466623,0,0,1.0482158,0.00104666,-0.37001973)">
	<path
   id="XMLID_472_"
   d="M 477.708,63.993 414.068,0.354 399.926,14.496 385.784,0.353 371.642,14.496 385.784,28.638 364.57,49.851 350.427,35.708 l -14.142,14.143 16.843,16.843 -4.37,13.111 -57.44,57.439 c -42.118,-21.271 -93.419,-13.355 -127.247,20.474 -5.977,5.977 -11.229,12.59 -15.664,19.717 -39.509,0.352 -76.439,15.818 -104.545,43.923 -58.484,58.485 -58.484,153.647 0,212.133 29.246,29.245 67.65,43.866 106.066,43.863 38.407,-0.004 76.827,-14.625 106.066,-43.863 28.104,-28.104 43.57,-65.035 43.922,-104.545 7.126,-4.435 13.739,-9.687 19.717,-15.663 33.467,-33.468 41.579,-84.389 20.943,-126.302 l 57.678,-57.679 13.11,-4.37 16.136,16.136 14.143,-14.143 -13.435,-13.435 21.213,-21.213 13.435,13.435 14.143,-14.143 -13.435,-13.435 z m -63.64,-35.355 35.355,35.354 -40.757,40.758 -13.11,4.37 -26.616,-26.616 4.37,-13.11 z m -56.568,70.71 21.213,21.213 -108.46,108.461 c -2.455,-4.502 -5.571,-8.737 -9.377,-12.543 -3.513,-3.513 -7.425,-6.478 -11.624,-8.883 z M 246.733,230.622 c 13.646,13.646 13.646,35.851 0,49.497 -6.611,6.61 -15.4,10.251 -24.749,10.251 -9.349,0 -18.138,-3.641 -24.749,-10.251 -13.646,-13.646 -13.647,-35.852 0,-49.497 6.61,-6.611 15.399,-10.252 24.749,-10.252 9.349,0 18.139,3.64 24.749,10.252 z m 58.76,68.518 c -6.079,6.078 -12.954,11.237 -20.436,15.335 l -5.374,2.942 0.182,6.125 c 1.074,36.195 -12.425,70.22 -38.011,95.806 -50.689,50.688 -133.162,50.688 -183.848,0 -50.687,-50.687 -50.687,-133.161 0,-183.848 25.587,-25.587 59.601,-39.063 95.806,-38.012 l 6.125,0.183 2.943,-5.374 c 4.099,-7.483 9.259,-14.359 15.336,-20.437 26.073,-26.074 64.827,-33.334 98.035,-19.547 l -48.375,48.374 c -1.944,-0.206 -3.908,-0.319 -5.89,-0.319 -14.691,0 -28.503,5.722 -38.891,16.109 -21.445,21.444 -21.445,56.337 0,77.782 10.388,10.388 24.2,16.108 38.891,16.108 14.691,0 28.502,-5.721 38.891,-16.108 11.882,-11.883 17.168,-27.894 15.882,-43.459 l 48.686,-48.686 c 13.187,32.977 5.773,71.301 -19.952,97.026 z"
   inkscape:connector-curvature="0" />
	
		<rect
   id="XMLID_478_"
   x="105.283"
   y="317.77802"
   transform="matrix(-0.7071,-0.7071,0.7071,-0.7071,24.775,665.8193)"
   width="90"
   height="20.000999" />
</g>
<g
   id="g490"
   transform="matrix(1.0466623,0,0,1.0482158,0.00104666,-0.37001973)">
</g>
<g
   id="g492"
   transform="matrix(1.0466623,0,0,1.0482158,0.00104666,-0.37001973)">
</g>
<g
   id="g494"
   transform="matrix(1.0466623,0,0,1.0482158,0.00104666,-0.37001973)">
</g>
<g
   id="g496"
   transform="matrix(1.0466623,0,0,1.0482158,0.00104666,-0.37001973)">
</g>
<g
   id="g498"
   transform="matrix(1.0466623,0,0,1.0482158,0.00104666,-0.37001973)">
</g>
<g
   id="g500"
   transform="matrix(1.0466623,0,0,1.0482158,0.00104666,-0.37001973)">
</g>
<g
   id="g502"
   transform="matrix(1.0466623,0,0,1.0482158,0.00104666,-0.37001973)">
</g>
<g
   id="g504"
   transform="matrix(1.0466623,0,0,1.0482158,0.00104666,-0.37001973)">
</g>
<g
   id="g506"
   transform="matrix(1.0466623,0,0,1.0482158,0.00104666,-0.37001973)">
</g>
<g
   id="g508"
   transform="matrix(1.0466623,0,0,1.0482158,0.00104666,-0.37001973)">
</g>
<g
   id="g510"
   transform="matrix(1.0466623,0,0,1.0482158,0.00104666,-0.37001973)">
</g>
<g
   id="g512"
   transform="matrix(1.0466623,0,0,1.0482158,0.00104666,-0.37001973)">
</g>
<g
   id="g514"
   transform="matrix(1.0466623,0,0,1.0482158,0.00104666,-0.37001973)">
</g>
<g
   id="g516"
   transform="matrix(1.0466623,0,0,1.0482158,0.00104666,-0.37001973)">
</g>
<g
   id="g518"
   transform="matrix(1.0466623,0,0,1.0482158,0.00104666,-0.37001973)">
</g>
</svg>