<?xml version="1.0" encoding="iso-8859-1"?>
<!-- Generator: Adobe Illustrator 19.0.0, SVG Export Plug-In . SVG Version: 6.00 Build 0)  -->
<svg version="1.1" id="Capa_1" xmlns="http://www.w3.org/2000/svg" xmlns:xlink="http://www.w3.org/1999/xlink" x="0px" y="0px"
	 viewBox="0 0 470 470" style="enable-background:new 0 0 470 470;" xml:space="preserve">
<g id="XMLID_470_">
	<path id="XMLID_472_" d="M477.708,63.993L414.068,0.354l-14.142,14.142L385.784,0.353l-14.142,14.143l14.142,14.142l-21.214,21.213
		l-14.143-14.143l-14.142,14.143l16.843,16.843l-4.37,13.111l-57.44,57.439c-42.118-21.271-93.419-13.355-127.247,20.474
		c-5.977,5.977-11.229,12.59-15.664,19.717c-39.509,0.352-76.439,15.818-104.545,43.923c-58.484,58.485-58.484,153.647,0,212.133
		c29.246,29.245,67.65,43.866,106.066,43.863c38.407-0.004,76.827-14.625,106.066-43.863c28.104-28.104,43.57-65.035,43.922-104.545
		c7.126-4.435,13.739-9.687,19.717-15.663c33.467-33.468,41.579-84.389,20.943-126.302l57.678-57.679l13.11-4.37l16.136,16.136
		l14.143-14.143l-13.435-13.435l21.213-21.213l13.435,13.435l14.143-14.143l-13.435-13.435L477.708,63.993z M414.068,28.638
		l35.355,35.354l-40.757,40.758l-13.11,4.37l-26.616-26.616l4.37-13.11L414.068,28.638z M357.5,99.348l21.213,21.213
		l-108.46,108.461c-2.455-4.502-5.571-8.737-9.377-12.543c-3.513-3.513-7.425-6.478-11.624-8.883L357.5,99.348z M246.733,230.622
		c13.646,13.646,13.646,35.851,0,49.497c-6.611,6.61-15.4,10.251-24.749,10.251c-9.349,0-18.138-3.641-24.749-10.251
		c-13.646-13.646-13.647-35.852,0-49.497c6.61-6.611,15.399-10.252,24.749-10.252C231.333,220.37,240.123,224.01,246.733,230.622z
		 M305.493,299.14c-6.079,6.078-12.954,11.237-20.436,15.335l-5.374,2.942l0.182,6.125c1.074,36.195-12.425,70.22-38.011,95.806
		c-50.689,50.688-133.162,50.688-183.848,0c-50.687-50.687-50.687-133.161,0-183.848c25.587-25.587,59.601-39.063,95.806-38.012
		l6.125,0.183l2.943-5.374c4.099-7.483,9.259-14.359,15.336-20.437c26.073-26.074,64.827-33.334,98.035-19.547l-48.375,48.374
		c-1.944-0.206-3.908-0.319-5.89-0.319c-14.691,0-28.503,5.722-38.891,16.109c-21.445,21.444-21.445,56.337,0,77.782
		c10.388,10.388,24.2,16.108,38.891,16.108c14.691,0,28.502-5.721,38.891-16.108c11.882-11.883,17.168-27.894,15.882-43.459
		l48.686-48.686C338.632,235.091,331.218,273.415,305.493,299.14z"/>
	
		<rect id="XMLID_478_" x="105.283" y="317.778" transform="matrix(-0.7071 -0.7071 0.7071 -0.7071 24.775 665.8193)" width="90" height="20.001"/>
</g>
<g>
</g>
<g>
</g>
<g>
</g>
<g>
</g>
<g>
</g>
<g>
</g>
<g>
</g>
<g>
</g>
<g>
</g>
<g>
</g>
<g>
</g>
<g>
</g>
<g>
</g>
<g>
</g>
<g>
</g>
</svg>
