<?xml version="1.0" encoding="UTF-8" standalone="no"?>
<!-- Generator: Adobe Illustrator 19.0.0, SVG Export Plug-In . SVG Version: 6.00 Build 0)  -->

<svg
   xmlns:dc="http://purl.org/dc/elements/1.1/"
   xmlns:cc="http://creativecommons.org/ns#"
   xmlns:rdf="http://www.w3.org/1999/02/22-rdf-syntax-ns#"
   xmlns:svg="http://www.w3.org/2000/svg"
   xmlns="http://www.w3.org/2000/svg"
   xmlns:sodipodi="http://sodipodi.sourceforge.net/DTD/sodipodi-0.dtd"
   xmlns:inkscape="http://www.inkscape.org/namespaces/inkscape"
   version="1.1"
   id="Layer_1"
   x="0px"
   y="0px"
   viewBox="0 0 500 500"
   xml:space="preserve"
   sodipodi:docname="Mandolin.svg"
   width="500"
   height="500"
   inkscape:version="0.92.3 (2405546, 2018-03-11)"><metadata
   id="metadata627"><rdf:RDF><cc:Work
       rdf:about=""><dc:format>image/svg+xml</dc:format><dc:type
         rdf:resource="http://purl.org/dc/dcmitype/StillImage" /><dc:title></dc:title></cc:Work></rdf:RDF></metadata><defs
   id="defs625" /><sodipodi:namedview
   pagecolor="#ffffff"
   bordercolor="#666666"
   borderopacity="1"
   objecttolerance="10"
   gridtolerance="10"
   guidetolerance="10"
   inkscape:pageopacity="0"
   inkscape:pageshadow="2"
   inkscape:window-width="958"
   inkscape:window-height="1008"
   id="namedview623"
   showgrid="false"
   inkscape:zoom="0.50212766"
   inkscape:cx="235"
   inkscape:cy="235"
   inkscape:window-x="-7"
   inkscape:window-y="0"
   inkscape:window-maximized="0"
   inkscape:current-layer="Layer_1" />
<g
   id="g590"
   transform="matrix(1.0638294,0,0,1.0639668,0,-0.03244475)">
	<g
   id="g588">
		<g
   id="g586">
			<path
   d="M 467.804,50.813 419.219,2.228 c -1.468,-1.467 -3.462,-2.265 -5.551,-2.193 -2.073,0.068 -4.026,0.992 -5.394,2.553 l -50.08,57.151 c -0.598,0.682 -1.067,1.467 -1.385,2.317 L 347.082,88.08 236.201,190.137 112.543,208.029 c -28.191,4.123 -53.77,16.979 -73.97,37.179 C 13.699,270.083 0,303.155 0,338.333 c 0,35.178 13.699,68.25 38.573,93.125 25.675,25.675 59.399,38.512 93.125,38.512 33.725,0 67.45,-12.837 93.125,-38.512 20.199,-20.199 33.056,-45.777 37.181,-73.981 l 17.89,-123.646 102.058,-110.883 26.023,-9.727 c 0.85,-0.318 1.635,-0.787 2.316,-1.385 l 57.151,-50.08 c 1.561,-1.367 2.485,-3.32 2.554,-5.394 0.069,-2.074 -0.725,-4.082 -2.192,-5.549 z m -247.472,225.58 c -2.805,3.048 -2.608,7.792 0.439,10.597 1.441,1.327 3.262,1.982 5.077,1.982 2.023,0 4.042,-0.814 5.521,-2.421 l 30.541,-33.182 -14.75,101.949 c -3.653,24.973 -15.045,47.635 -32.944,65.533 -22.753,22.753 -52.631,34.128 -82.518,34.125 C 101.817,454.973 71.927,443.598 49.18,420.851 27.139,398.81 15,369.504 15,338.333 c 0,-31.171 12.139,-60.477 34.181,-82.518 17.899,-17.9 40.561,-29.292 65.521,-32.942 l 101.961,-14.753 -33.184,30.543 c -3.048,2.805 -3.244,7.55 -0.439,10.597 2.805,3.047 7.549,3.245 10.598,0.439 l 50.966,-46.91 c 0.021,-0.019 108.661,-100.013 108.661,-100.013 l 13.99,13.989 z m 181.106,-176.742 -21.898,8.185 -17.344,-17.344 8.185,-21.899 43.896,-50.094 37.256,37.256 z"
   id="path578"
   inkscape:connector-curvature="0" />
			<path
   d="m 171.17,258.861 c -10.685,0 -20.729,4.161 -28.283,11.716 -7.556,7.555 -11.717,17.6 -11.717,28.284 0,10.684 4.161,20.729 11.716,28.284 7.555,7.555 17.6,11.716 28.284,11.716 10.684,0 20.73,-4.161 28.285,-11.716 15.595,-15.596 15.595,-40.973 0,-56.569 -7.556,-7.554 -17.601,-11.715 -28.285,-11.715 z m 17.678,57.678 c -4.722,4.722 -11,7.323 -17.678,7.323 -6.678,0 -12.955,-2.601 -17.678,-7.323 -4.722,-4.722 -7.322,-11 -7.322,-17.677 0,-6.677 2.601,-12.956 7.323,-17.678 4.722,-4.722 10.999,-7.322 17.677,-7.322 6.678,0 12.956,2.6 17.678,7.322 9.747,9.747 9.747,25.607 0,35.355 z"
   id="path580"
   inkscape:connector-curvature="0" />
			<path
   d="m 88.085,321.842 c -2.93,-2.929 -7.678,-2.929 -10.607,0 -2.929,2.929 -2.929,7.678 0,10.606 l 60.104,60.104 c 1.465,1.465 3.385,2.197 5.304,2.197 1.919,0 3.839,-0.732 5.304,-2.197 2.929,-2.929 2.929,-7.678 0,-10.606 z"
   id="path582"
   inkscape:connector-curvature="0" />
			<path
   d="m 66.858,367.818 c -2.93,-2.929 -7.678,-2.929 -10.607,0 l -11.836,11.836 c -2.929,2.929 -2.929,7.677 0,10.606 2.93,2.929 7.678,2.929 10.607,0 l 6.532,-6.532 24.749,24.749 -6.533,6.533 c -2.929,2.929 -2.929,7.677 0,10.606 1.465,1.465 3.385,2.197 5.304,2.197 1.919,0 3.839,-0.732 5.304,-2.197 l 11.836,-11.836 c 1.406,-1.406 2.196,-3.314 2.196,-5.303 0,-1.989 -0.79,-3.897 -2.196,-5.303 z"
   id="path584"
   inkscape:connector-curvature="0" />
		</g>
	</g>
</g>
<g
   id="g592"
   transform="matrix(1.0638294,0,0,1.0639668,0,-0.03244475)">
</g>
<g
   id="g594"
   transform="matrix(1.0638294,0,0,1.0639668,0,-0.03244475)">
</g>
<g
   id="g596"
   transform="matrix(1.0638294,0,0,1.0639668,0,-0.03244475)">
</g>
<g
   id="g598"
   transform="matrix(1.0638294,0,0,1.0639668,0,-0.03244475)">
</g>
<g
   id="g600"
   transform="matrix(1.0638294,0,0,1.0639668,0,-0.03244475)">
</g>
<g
   id="g602"
   transform="matrix(1.0638294,0,0,1.0639668,0,-0.03244475)">
</g>
<g
   id="g604"
   transform="matrix(1.0638294,0,0,1.0639668,0,-0.03244475)">
</g>
<g
   id="g606"
   transform="matrix(1.0638294,0,0,1.0639668,0,-0.03244475)">
</g>
<g
   id="g608"
   transform="matrix(1.0638294,0,0,1.0639668,0,-0.03244475)">
</g>
<g
   id="g610"
   transform="matrix(1.0638294,0,0,1.0639668,0,-0.03244475)">
</g>
<g
   id="g612"
   transform="matrix(1.0638294,0,0,1.0639668,0,-0.03244475)">
</g>
<g
   id="g614"
   transform="matrix(1.0638294,0,0,1.0639668,0,-0.03244475)">
</g>
<g
   id="g616"
   transform="matrix(1.0638294,0,0,1.0639668,0,-0.03244475)">
</g>
<g
   id="g618"
   transform="matrix(1.0638294,0,0,1.0639668,0,-0.03244475)">
</g>
<g
   id="g620"
   transform="matrix(1.0638294,0,0,1.0639668,0,-0.03244475)">
</g>
</svg>