<?xml version="1.0" encoding="iso-8859-1"?>
<!-- Generator: Adobe Illustrator 19.0.0, SVG Export Plug-In . SVG Version: 6.00 Build 0)  -->
<svg version="1.1" id="Layer_1" xmlns="http://www.w3.org/2000/svg" xmlns:xlink="http://www.w3.org/1999/xlink" x="0px" y="0px"
	 viewBox="0 0 470 470" style="enable-background:new 0 0 470 470;" xml:space="preserve">
<g>
	<g>
		<g>
			<path d="M467.804,50.813L419.219,2.228c-1.468-1.467-3.462-2.265-5.551-2.193c-2.073,0.068-4.026,0.992-5.394,2.553
				l-50.08,57.151c-0.598,0.682-1.067,1.467-1.385,2.317l-9.727,26.024L236.201,190.137l-123.658,17.892
				c-28.191,4.123-53.77,16.979-73.97,37.179C13.699,270.083,0,303.155,0,338.333c0,35.178,13.699,68.25,38.573,93.125
				c25.675,25.675,59.399,38.512,93.125,38.512c33.725,0,67.45-12.837,93.125-38.512c20.199-20.199,33.056-45.777,37.181-73.981
				l17.89-123.646l102.058-110.883l26.023-9.727c0.85-0.318,1.635-0.787,2.316-1.385l57.151-50.08
				c1.561-1.367,2.485-3.32,2.554-5.394C470.065,54.288,469.271,52.28,467.804,50.813z M220.332,276.393
				c-2.805,3.048-2.608,7.792,0.439,10.597c1.441,1.327,3.262,1.982,5.077,1.982c2.023,0,4.042-0.814,5.521-2.421l30.541-33.182
				l-14.75,101.949c-3.653,24.973-15.045,47.635-32.944,65.533c-22.753,22.753-52.631,34.128-82.518,34.125
				c-29.881-0.003-59.771-11.378-82.518-34.125C27.139,398.81,15,369.504,15,338.333c0-31.171,12.139-60.477,34.181-82.518
				c17.899-17.9,40.561-29.292,65.521-32.942l101.961-14.753l-33.184,30.543c-3.048,2.805-3.244,7.55-0.439,10.597
				c2.805,3.047,7.549,3.245,10.598,0.439l50.966-46.91c0.021-0.019,108.661-100.013,108.661-100.013l13.99,13.989L220.332,276.393z
				 M401.438,99.651l-21.898,8.185l-17.344-17.344l8.185-21.899l43.896-50.094l37.256,37.256L401.438,99.651z"/>
			<path d="M171.17,258.861c-10.685,0-20.729,4.161-28.283,11.716c-7.556,7.555-11.717,17.6-11.717,28.284
				c0,10.684,4.161,20.729,11.716,28.284s17.6,11.716,28.284,11.716c10.684,0,20.73-4.161,28.285-11.716
				c15.595-15.596,15.595-40.973,0-56.569C191.899,263.022,181.854,258.861,171.17,258.861z M188.848,316.539
				c-4.722,4.722-11,7.323-17.678,7.323c-6.678,0-12.955-2.601-17.678-7.323c-4.722-4.722-7.322-11-7.322-17.677
				s2.601-12.956,7.323-17.678c4.722-4.722,10.999-7.322,17.677-7.322c6.678,0,12.956,2.6,17.678,7.322
				C198.595,290.931,198.595,306.791,188.848,316.539z"/>
			<path d="M88.085,321.842c-2.93-2.929-7.678-2.929-10.607,0c-2.929,2.929-2.929,7.678,0,10.606l60.104,60.104
				c1.465,1.465,3.385,2.197,5.304,2.197s3.839-0.732,5.304-2.197c2.929-2.929,2.929-7.678,0-10.606L88.085,321.842z"/>
			<path d="M66.858,367.818c-2.93-2.929-7.678-2.929-10.607,0l-11.836,11.836c-2.929,2.929-2.929,7.677,0,10.606
				c2.93,2.929,7.678,2.929,10.607,0l6.532-6.532l24.749,24.749l-6.533,6.533c-2.929,2.929-2.929,7.677,0,10.606
				c1.465,1.465,3.385,2.197,5.304,2.197s3.839-0.732,5.304-2.197l11.836-11.836c1.406-1.406,2.196-3.314,2.196-5.303
				s-0.79-3.897-2.196-5.303L66.858,367.818z"/>
		</g>
	</g>
</g>
<g>
</g>
<g>
</g>
<g>
</g>
<g>
</g>
<g>
</g>
<g>
</g>
<g>
</g>
<g>
</g>
<g>
</g>
<g>
</g>
<g>
</g>
<g>
</g>
<g>
</g>
<g>
</g>
<g>
</g>
</svg>
