<?xml version="1.0" encoding="UTF-8" standalone="no"?>
<!-- Generator: Adobe Illustrator 19.0.0, SVG Export Plug-In . SVG Version: 6.00 Build 0)  -->

<svg
   xmlns:dc="http://purl.org/dc/elements/1.1/"
   xmlns:cc="http://creativecommons.org/ns#"
   xmlns:rdf="http://www.w3.org/1999/02/22-rdf-syntax-ns#"
   xmlns:svg="http://www.w3.org/2000/svg"
   xmlns="http://www.w3.org/2000/svg"
   xmlns:sodipodi="http://sodipodi.sourceforge.net/DTD/sodipodi-0.dtd"
   xmlns:inkscape="http://www.inkscape.org/namespaces/inkscape"
   version="1.1"
   id="Layer_1"
   x="0px"
   y="0px"
   viewBox="0 0 500 500"
   xml:space="preserve"
   sodipodi:docname="Piano.svg"
   width="500"
   height="500"
   inkscape:version="0.92.3 (2405546, 2018-03-11)"><metadata
   id="metadata739"><rdf:RDF><cc:Work
       rdf:about=""><dc:format>image/svg+xml</dc:format><dc:type
         rdf:resource="http://purl.org/dc/dcmitype/StillImage" /><dc:title></dc:title></cc:Work></rdf:RDF></metadata><defs
   id="defs737" /><sodipodi:namedview
   pagecolor="#ffffff"
   bordercolor="#666666"
   borderopacity="1"
   objecttolerance="10"
   gridtolerance="10"
   guidetolerance="10"
   inkscape:pageopacity="0"
   inkscape:pageshadow="2"
   inkscape:window-width="958"
   inkscape:window-height="1008"
   id="namedview735"
   showgrid="false"
   inkscape:zoom="0.50212766"
   inkscape:cx="235"
   inkscape:cy="235"
   inkscape:window-x="-7"
   inkscape:window-y="0"
   inkscape:window-maximized="0"
   inkscape:current-layer="Layer_1" />
<g
   id="g702"
   transform="scale(0.97656441,0.9765625)">
	<g
   id="g700">
		<path
   d="m 401.067,170.667 c -41.975,0 -80.674,-30.908 -111.915,-89.37 C 262.357,31.147 210.415,0 153.6,0 68.907,0 0,68.907 0,153.6 v 179.2 c 0,4.71 3.814,8.533 8.533,8.533 H 51.2 v 76.8 c 0,4.71 3.814,8.533 8.533,8.533 h 34.133 c 4.719,0 8.533,-3.823 8.533,-8.533 v -76.8 h 17.067 v 76.8 c 0,4.71 3.814,8.533 8.533,8.533 h 34.133 c 4.719,0 8.533,-3.823 8.533,-8.533 v -76.8 h 17.067 v 76.8 c 0,4.71 3.814,8.533 8.533,8.533 H 230.4 c 4.719,0 8.533,-3.823 8.533,-8.533 v -76.8 h 34.133 v 153.6 h -51.2 v -42.667 c 0,-4.71 -3.814,-8.533 -8.533,-8.533 -4.719,0 -8.533,3.823 -8.533,8.533 v 42.667 h -51.2 v -42.667 c 0,-4.71 -3.814,-8.533 -8.533,-8.533 -4.719,0 -8.533,3.823 -8.533,8.533 v 42.667 h -51.2 v -42.667 c 0,-4.71 -3.814,-8.533 -8.533,-8.533 -4.719,0 -8.533,3.823 -8.533,8.533 v 42.667 h -51.2 v -128 c 0,-4.71 -3.814,-8.533 -8.533,-8.533 C 3.816,358.4 0,362.223 0,366.933 V 503.466 C 0,508.177 3.814,512 8.533,512 h 494.933 c 4.719,0 8.533,-3.823 8.533,-8.533 V 281.6 C 512,220.433 462.234,170.667 401.067,170.667 Z M 85.333,409.6 H 68.267 V 341.333 H 85.334 V 409.6 Z m 68.267,0 H 136.533 V 341.333 H 153.6 Z m 68.267,0 H 204.8 v -68.267 h 17.067 z m 273.066,85.333 h -68.267 v -42.667 c 0,-4.71 -3.814,-8.533 -8.533,-8.533 -4.719,0 -8.533,3.823 -8.533,8.533 v 42.667 h -51.2 v -42.667 c 0,-4.71 -3.814,-8.533 -8.533,-8.533 -4.719,0 -8.533,3.823 -8.533,8.533 v 42.667 h -51.2 v -153.6 h 34.133 v 76.8 c 0,4.71 3.814,8.533 8.533,8.533 h 34.133 c 4.719,0 8.533,-3.823 8.533,-8.533 v -76.8 h 17.067 v 76.8 c 0,4.71 3.814,8.533 8.533,8.533 H 435.2 c 4.719,0 8.533,-3.823 8.533,-8.533 v -76.8 h 25.6 c 4.719,0 8.533,-3.823 8.533,-8.533 0,-4.71 -3.814,-8.533 -8.533,-8.533 H 17.067 V 153.6 c 0,-75.281 61.252,-136.533 136.533,-136.533 50.509,0 96.674,27.699 120.499,72.277 43.46,81.323 93.03,98.389 126.968,98.389 51.755,0 93.867,42.112 93.867,93.867 V 494.933 Z M 341.333,409.6 V 341.333 H 358.4 V 409.6 Z m 68.267,0 v -68.267 h 17.067 V 409.6 Z"
   id="path698"
   inkscape:connector-curvature="0" />
	</g>
</g>
<g
   id="g704"
   transform="scale(0.97656441,0.9765625)">
</g>
<g
   id="g706"
   transform="scale(0.97656441,0.9765625)">
</g>
<g
   id="g708"
   transform="scale(0.97656441,0.9765625)">
</g>
<g
   id="g710"
   transform="scale(0.97656441,0.9765625)">
</g>
<g
   id="g712"
   transform="scale(0.97656441,0.9765625)">
</g>
<g
   id="g714"
   transform="scale(0.97656441,0.9765625)">
</g>
<g
   id="g716"
   transform="scale(0.97656441,0.9765625)">
</g>
<g
   id="g718"
   transform="scale(0.97656441,0.9765625)">
</g>
<g
   id="g720"
   transform="scale(0.97656441,0.9765625)">
</g>
<g
   id="g722"
   transform="scale(0.97656441,0.9765625)">
</g>
<g
   id="g724"
   transform="scale(0.97656441,0.9765625)">
</g>
<g
   id="g726"
   transform="scale(0.97656441,0.9765625)">
</g>
<g
   id="g728"
   transform="scale(0.97656441,0.9765625)">
</g>
<g
   id="g730"
   transform="scale(0.97656441,0.9765625)">
</g>
<g
   id="g732"
   transform="scale(0.97656441,0.9765625)">
</g>
</svg>