<?xml version="1.0" encoding="UTF-8" standalone="no"?>
<!-- Svg Vector Icons : http://www.onlinewebfonts.com/icon -->

<svg
   xmlns:dc="http://purl.org/dc/elements/1.1/"
   xmlns:cc="http://creativecommons.org/ns#"
   xmlns:rdf="http://www.w3.org/1999/02/22-rdf-syntax-ns#"
   xmlns:svg="http://www.w3.org/2000/svg"
   xmlns="http://www.w3.org/2000/svg"
   xmlns:sodipodi="http://sodipodi.sourceforge.net/DTD/sodipodi-0.dtd"
   xmlns:inkscape="http://www.inkscape.org/namespaces/inkscape"
   version="1.1"
   x="0px"
   y="0px"
   viewBox="0 0 500 500"
   enable-background="new 0 0 1000 1000"
   xml:space="preserve"
   id="svg771"
   sodipodi:docname="Saxophone.svg"
   width="500"
   height="500"
   inkscape:version="0.92.3 (2405546, 2018-03-11)"><defs
   id="defs775" /><sodipodi:namedview
   pagecolor="#ffffff"
   bordercolor="#666666"
   borderopacity="1"
   objecttolerance="10"
   gridtolerance="10"
   guidetolerance="10"
   inkscape:pageopacity="0"
   inkscape:pageshadow="2"
   inkscape:window-width="958"
   inkscape:window-height="1008"
   id="namedview773"
   showgrid="false"
   inkscape:zoom="0.236"
   inkscape:cx="500"
   inkscape:cy="500"
   inkscape:window-x="-7"
   inkscape:window-y="0"
   inkscape:window-maximized="0"
   inkscape:current-layer="svg771" />
<metadata
   id="metadata759"> Svg Vector Icons : http://www.onlinewebfonts.com/icon <rdf:RDF><cc:Work
     rdf:about=""><dc:format>image/svg+xml</dc:format><dc:type
       rdf:resource="http://purl.org/dc/dcmitype/StillImage" /><dc:title></dc:title></cc:Work></rdf:RDF></metadata>
<g
   id="g769"
   transform="matrix(0.51020421,0,0,0.50849441,-5.100409,-4.2454947)"><g
     transform="matrix(0.1,0,0,-0.1,0,511)"
     id="g767"><path
       d="M 3049.2,5010.5 C 2910.3,4981.6 2765.6,4898.6 2632.5,4775.1 2426.1,4580.3 2293,4370 2028.7,3814.4 1804.9,3343.7 1687.3,3145 1554.1,3011.9 c -98.4,-100.3 -133.1,-121.5 -218,-140.8 -202.5,-42.4 -426.3,-15.4 -617.3,77.2 -192.9,92.6 -235.3,73.3 -461.1,-204.5 -183.2,-225.7 -196.7,-297 -92.5,-443.6 177.5,-250.8 511.2,-397.4 968.4,-426.3 499.6,-30.9 904.7,129.3 1248.1,493.8 148.5,158.2 337.6,436 447.5,661.7 40.5,81 79.1,148.5 84.9,148.5 9.6,0 2064.1,-5409.1 2220.4,-5845.1 391.6,-1095.7 1101.5,-1865.4 1917.5,-2075.6 507.3,-133.1 1238.5,-50.2 1618.5,181.3 183.3,110 472.6,353 659.7,549.8 279.7,297.1 376.2,536.3 414.7,1047.5 34.7,453.3 -11.6,669.4 -314.4,1454.5 -268.1,694.5 -343.4,943.3 -343.4,1126.6 0,129.2 54,410.9 100.3,517 48.2,111.9 98.4,150.5 266.2,206.4 389.7,129.2 542.1,366.5 385.8,603.8 -82.9,125.4 -208.3,183.3 -742.7,341.4 -571,165.9 -1174.8,353 -1832.6,563.3 -480.4,154.3 -509.3,160.1 -686.7,160.1 -173.6,1.9 -189.1,-1.9 -256.6,-54 -81,-61.7 -127.3,-150.5 -127.3,-246.9 0,-108 84.9,-252.7 260.4,-451.4 94.5,-104.2 185.2,-225.7 204.5,-268.1 50.2,-115.7 71.4,-289.4 83,-684.8 5.8,-198.7 25.1,-430.2 40.5,-520.8 92.6,-493.8 358.8,-1116.9 758.1,-1772.8 100.3,-165.9 200.6,-349.2 219.9,-407 48.2,-135 36.6,-243.1 -32.8,-302.9 -104.2,-90.7 -229.6,-34.7 -366.5,167.8 -50.1,75.2 -291.3,582.6 -598,1259.7 -505.4,1118.7 -511.2,1134.1 -482.3,1190.1 15.4,30.9 28.9,96.5 28.9,144.7 0,73.3 -9.6,100.3 -54,144.7 -30.9,28.9 -88.8,65.6 -131.2,77.2 -77.2,23.1 -77.2,23.1 -245,395.5 -165.9,372.3 -167.8,374.2 -138.9,441.8 65.6,158.2 7.7,291.3 -148.5,343.4 l -81,27 -167.8,372.3 c -164,364.6 -167.8,374.2 -140.8,437.9 63.7,152.4 5.8,285.5 -154.3,354.9 l -79.1,32.8 -306.7,682.9 c -389.7,864.2 -474.6,1032.1 -613.4,1207.6 -262.4,329.7 -659.8,501.4 -999.3,430 z m 405.1,-437.9 c 156.3,-77.2 326,-260.4 430.2,-463 48.2,-92.6 214.1,-451.4 370.4,-796.7 156.3,-345.3 287.4,-632.7 291.3,-640.5 5.8,-7.7 -32.8,-30.9 -83,-54 -250.8,-111.9 -320.2,-308.7 -196.8,-557.5 79.1,-160.1 173.6,-223.8 324.1,-221.8 73.3,0 135,15.4 192.9,44.4 46.3,23.1 90.7,36.7 98.4,27 9.6,-7.7 57.9,-110 110,-227.6 l 94.5,-210.3 -108,-52.1 c -200.6,-94.5 -273.9,-264.3 -204.5,-474.6 86.8,-260.4 304.8,-360.7 544,-248.8 l 100.3,46.3 98.4,-218 c 54,-119.6 98.4,-223.8 98.4,-235.4 0,-9.6 -30.9,-28.9 -69.4,-42.4 -90.7,-32.8 -200.6,-131.2 -231.5,-208.3 -79.1,-187.1 48.2,-476.5 245,-553.6 94.5,-38.6 198.7,-27 312.5,30.9 42.4,21.2 79.1,32.8 83,28.9 5.8,-3.9 229.5,-495.8 499.6,-1091.9 270.1,-596.1 526.6,-1136.2 571,-1201.8 295.2,-432.1 696.4,-520.8 991.5,-218 115.8,119.6 164,239.2 164,416.7 0,219.9 -61.7,376.2 -306.7,769.7 -169.8,272 -459.1,850.7 -549.8,1101.5 -142.7,391.6 -167.8,522.8 -185.2,1020.5 -23.2,657.8 -73.3,821.8 -329.9,1109.2 -73.3,82.9 -131.2,152.4 -127.3,156.3 3.9,3.9 227.6,-63.7 497.7,-148.5 628.9,-198.7 1595.3,-493.8 1950.3,-596.1 150.5,-44.4 283.6,-86.8 291.3,-96.5 9.6,-7.7 -28.9,-30.9 -86.8,-48.2 C 9191.5,670.2 9062.2,602.7 8985,535.1 8817.2,388.5 8699.5,8.5 8697.6,-390.8 c 0,-258.5 67.5,-491.9 366.5,-1263.5 268.2,-694.5 304.8,-844.9 287.4,-1230.7 -21.2,-478.4 -94.5,-654 -399.3,-945.2 -436,-420.5 -644.3,-522.8 -1161.3,-574.9 -688.7,-69.5 -1269.3,214.1 -1753.5,856.5 -210.3,277.8 -412.8,673.3 -553.6,1074.5 -84.9,246.9 -2199.1,5814.2 -2262.8,5962.7 -84.9,194.8 -256.6,285.5 -401.2,210.3 -102.2,-50.2 -144.7,-110 -326,-455.3 -194.8,-372.3 -245,-445.6 -437.9,-636.6 -164,-164 -360.7,-281.6 -515.1,-308.7 l -73.3,-11.6 v 106.1 c 0,100.3 3.9,106.1 54,119.6 75.2,17.4 173.6,81 281.6,183.3 179.4,165.9 299,360.7 559.4,906.7 297.1,619.2 490,900.9 677.1,985.8 119.5,53.8 287.3,48 414.7,-15.6 z M 821.1,2495 c 75.2,-17.4 158.2,-30.9 189,-30.9 50.2,0 52.1,-3.9 52.1,-98.4 0,-92.6 -1.9,-98.4 -42.4,-88.7 -25.1,5.8 -79.1,17.4 -121.5,25.1 -92.6,15.4 -273.9,92.6 -322.2,137 -32.8,28.9 -32.8,32.8 -1.9,67.5 19.3,23.1 50.1,34.7 73.3,28.9 21.2,-5.8 100.3,-23.2 173.6,-40.5 z"
       id="path761"
       inkscape:connector-curvature="0" /><path
       d="m 7885.3,-147.8 c -270.1,-98.4 -326,-447.5 -100.3,-621.2 133.1,-100.3 364.6,-81 476.5,44.4 48.2,52.1 92.6,167.8 92.6,237.3 0,119.6 -86.8,264.3 -192.9,318.3 -81,40.5 -196.8,50.1 -275.9,21.2 z"
       id="path763"
       inkscape:connector-curvature="0" /><path
       d="m 8354.1,-1307.2 c -135,-61.7 -212.2,-181.3 -212.2,-327.9 0,-148.5 79.1,-270.1 218,-327.9 306.7,-127.3 609.6,223.8 437.9,507.3 -90.7,148.5 -291.3,216 -443.7,148.5 z"
       id="path765"
       inkscape:connector-curvature="0" /></g></g>
</svg>