<?xml version="1.0" encoding="utf-8"?>
<!-- Svg Vector Icons : http://www.onlinewebfonts.com/icon -->
<!DOCTYPE svg PUBLIC "-//W3C//DTD SVG 1.1//EN" "http://www.w3.org/Graphics/SVG/1.1/DTD/svg11.dtd">
<svg version="1.1" xmlns="http://www.w3.org/2000/svg" xmlns:xlink="http://www.w3.org/1999/xlink" x="0px" y="0px" viewBox="0 0 1000 1000" enable-background="new 0 0 1000 1000" xml:space="preserve">
<metadata> Svg Vector Icons : http://www.onlinewebfonts.com/icon </metadata>
<g><g transform="translate(0.000000,511.000000) scale(0.100000,-0.100000)"><path d="M3049.2,5010.5c-138.9-28.9-283.6-111.9-416.7-235.4c-206.4-194.8-339.5-405.1-603.8-960.7c-223.8-470.7-341.4-669.4-474.6-802.5c-98.4-100.3-133.1-121.5-218-140.8c-202.5-42.4-426.3-15.4-617.3,77.2c-192.9,92.6-235.3,73.3-461.1-204.5C74.5,2518.1,61,2446.8,165.2,2300.2c177.5-250.8,511.2-397.4,968.4-426.3c499.6-30.9,904.7,129.3,1248.1,493.8c148.5,158.2,337.6,436,447.5,661.7c40.5,81,79.1,148.5,84.9,148.5c9.6,0,2064.1-5409.1,2220.4-5845.1C5526.1-3762.9,6236-4532.6,7052-4742.8c507.3-133.1,1238.5-50.2,1618.5,181.3c183.3,110,472.6,353,659.7,549.8c279.7,297.1,376.2,536.3,414.7,1047.5c34.7,453.3-11.6,669.4-314.4,1454.5c-268.1,694.5-343.4,943.3-343.4,1126.6c0,129.2,54,410.9,100.3,517c48.2,111.9,98.4,150.5,266.2,206.4c389.7,129.2,542.1,366.5,385.8,603.8c-82.9,125.4-208.3,183.3-742.7,341.4c-571,165.9-1174.8,353-1832.6,563.3c-480.4,154.3-509.3,160.1-686.7,160.1c-173.6,1.9-189.1-1.9-256.6-54c-81-61.7-127.3-150.5-127.3-246.9c0-108,84.9-252.7,260.4-451.4c94.5-104.2,185.2-225.7,204.5-268.1c50.2-115.7,71.4-289.4,83-684.8c5.8-198.7,25.1-430.2,40.5-520.8c92.6-493.8,358.8-1116.9,758.1-1772.8c100.3-165.9,200.6-349.2,219.9-407c48.2-135,36.6-243.1-32.8-302.9c-104.2-90.7-229.6-34.7-366.5,167.8c-50.1,75.2-291.3,582.6-598,1259.7C6257.2-153.6,6251.4-138.2,6280.3-82.2c15.4,30.9,28.9,96.5,28.9,144.7c0,73.3-9.6,100.3-54,144.7c-30.9,28.9-88.8,65.6-131.2,77.2c-77.2,23.1-77.2,23.1-245,395.5c-165.9,372.3-167.8,374.2-138.9,441.8c65.6,158.2,7.7,291.3-148.5,343.4l-81,27l-167.8,372.3c-164,364.6-167.8,374.2-140.8,437.9c63.7,152.4,5.8,285.5-154.3,354.9l-79.1,32.8l-306.7,682.9c-389.7,864.2-474.6,1032.1-613.4,1207.6C3786.1,4910.2,3388.7,5081.9,3049.2,5010.5z M3454.3,4572.6c156.3-77.2,326-260.4,430.2-463c48.2-92.6,214.1-451.4,370.4-796.7c156.3-345.3,287.4-632.7,291.3-640.5c5.8-7.7-32.8-30.9-83-54c-250.8-111.9-320.2-308.7-196.8-557.5c79.1-160.1,173.6-223.8,324.1-221.8c73.3,0,135,15.4,192.9,44.4c46.3,23.1,90.7,36.7,98.4,27c9.6-7.7,57.9-110,110-227.6l94.5-210.3l-108-52.1c-200.6-94.5-273.9-264.3-204.5-474.6c86.8-260.4,304.8-360.7,544-248.8l100.3,46.3l98.4-218c54-119.6,98.4-223.8,98.4-235.4c0-9.6-30.9-28.9-69.4-42.4c-90.7-32.8-200.6-131.2-231.5-208.3c-79.1-187.1,48.2-476.5,245-553.6c94.5-38.6,198.7-27,312.5,30.9c42.4,21.2,79.1,32.8,83,28.9c5.8-3.9,229.5-495.8,499.6-1091.9c270.1-596.1,526.6-1136.2,571-1201.8c295.2-432.1,696.4-520.8,991.5-218c115.8,119.6,164,239.2,164,416.7c0,219.9-61.7,376.2-306.7,769.7c-169.8,272-459.1,850.7-549.8,1101.5c-142.7,391.6-167.8,522.8-185.2,1020.5c-23.2,657.8-73.3,821.8-329.9,1109.2c-73.3,82.9-131.2,152.4-127.3,156.3c3.9,3.9,227.6-63.7,497.7-148.5c628.9-198.7,1595.3-493.8,1950.3-596.1c150.5-44.4,283.6-86.8,291.3-96.5c9.6-7.7-28.9-30.9-86.8-48.2c-142.7-48.2-272-115.7-349.2-183.3c-167.8-146.6-285.5-526.6-287.4-925.9c0-258.5,67.5-491.9,366.5-1263.5c268.2-694.5,304.8-844.9,287.4-1230.7c-21.2-478.4-94.5-654-399.3-945.2c-436-420.5-644.3-522.8-1161.3-574.9c-688.7-69.5-1269.3,214.1-1753.5,856.5c-210.3,277.8-412.8,673.3-553.6,1074.5c-84.9,246.9-2199.1,5814.2-2262.8,5962.7c-84.9,194.8-256.6,285.5-401.2,210.3c-102.2-50.2-144.7-110-326-455.3c-194.8-372.3-245-445.6-437.9-636.6c-164-164-360.7-281.6-515.1-308.7l-73.3-11.6v106.1c0,100.3,3.9,106.1,54,119.6c75.2,17.4,173.6,81,281.6,183.3c179.4,165.9,299,360.7,559.4,906.7c297.1,619.2,490,900.9,677.1,985.8C3159.1,4642,3326.9,4636.2,3454.3,4572.6z M821.1,2495c75.2-17.4,158.2-30.9,189-30.9c50.2,0,52.1-3.9,52.1-98.4c0-92.6-1.9-98.4-42.4-88.7c-25.1,5.8-79.1,17.4-121.5,25.1c-92.6,15.4-273.9,92.6-322.2,137c-32.8,28.9-32.8,32.8-1.9,67.5c19.3,23.1,50.1,34.7,73.3,28.9C668.7,2529.7,747.8,2512.3,821.1,2495z"/><path d="M7885.3-147.8c-270.1-98.4-326-447.5-100.3-621.2c133.1-100.3,364.6-81,476.5,44.4c48.2,52.1,92.6,167.8,92.6,237.3c0,119.6-86.8,264.3-192.9,318.3C8080.2-128.5,7964.4-118.9,7885.3-147.8z"/><path d="M8354.1-1307.2c-135-61.7-212.2-181.3-212.2-327.9c0-148.5,79.1-270.1,218-327.9c306.7-127.3,609.6,223.8,437.9,507.3C8707.1-1307.2,8506.5-1239.7,8354.1-1307.2z"/></g></g>
</svg>