<?xml version="1.0" encoding="UTF-8" standalone="no"?>
<!-- Generator: Adobe Illustrator 18.0.0, SVG Export Plug-In . SVG Version: 6.00 Build 0)  -->

<svg
   xmlns:dc="http://purl.org/dc/elements/1.1/"
   xmlns:cc="http://creativecommons.org/ns#"
   xmlns:rdf="http://www.w3.org/1999/02/22-rdf-syntax-ns#"
   xmlns:svg="http://www.w3.org/2000/svg"
   xmlns="http://www.w3.org/2000/svg"
   xmlns:sodipodi="http://sodipodi.sourceforge.net/DTD/sodipodi-0.dtd"
   xmlns:inkscape="http://www.inkscape.org/namespaces/inkscape"
   version="1.1"
   id="Capa_1"
   x="0px"
   y="0px"
   viewBox="0 0 499.99998 499.99998"
   xml:space="preserve"
   sodipodi:docname="Trombone.svg"
   width="500"
   height="500"
   inkscape:version="0.92.3 (2405546, 2018-03-11)"><metadata
   id="metadata861"><rdf:RDF><cc:Work
       rdf:about=""><dc:format>image/svg+xml</dc:format><dc:type
         rdf:resource="http://purl.org/dc/dcmitype/StillImage" /><dc:title></dc:title></cc:Work></rdf:RDF></metadata><defs
   id="defs859" /><sodipodi:namedview
   pagecolor="#ffffff"
   bordercolor="#666666"
   borderopacity="1"
   objecttolerance="10"
   gridtolerance="10"
   guidetolerance="10"
   inkscape:pageopacity="0"
   inkscape:pageshadow="2"
   inkscape:window-width="958"
   inkscape:window-height="1008"
   id="namedview857"
   showgrid="false"
   inkscape:zoom="0.5308333"
   inkscape:cx="222.29201"
   inkscape:cy="222.29201"
   inkscape:window-x="-7"
   inkscape:window-y="0"
   inkscape:window-maximized="0"
   inkscape:current-layer="Capa_1" />
<g
   id="g824"
   transform="matrix(1.124646,0,0,1.1258795,6.4350429e-6,-0.27441448)">
	<path
   d="M 444.211,17.652 C 442.996,11.189 438.957,5.735 433.129,2.688 424.352,-1.9 413.675,0.106 407.164,7.571 L 252.974,184.342 C 228.439,150.737 195.149,124.675 156.61,108.939 l -0.727,-0.297 c -1.582,-0.645 -3.401,-0.215 -4.526,1.073 -1.124,1.288 -1.306,3.148 -0.451,4.629 14.617,25.342 13.145,57.149 -3.75,81.032 L 7.941,390.985 c -6.098,6.991 -8.888,16.274 -7.655,25.468 1.233,9.194 6.37,17.414 14.094,22.551 5.427,3.609 11.605,5.337 17.736,5.337 10.244,0 20.351,-4.827 26.566,-13.765 14.492,-20.842 40.772,-58.063 53.963,-73.186 l 51.09,-58.572 20.099,17.532 -6.463,7.409 -14.571,4.99 c -1.352,0.463 -2.354,1.612 -2.629,3.014 -0.275,1.402 0.219,2.845 1.296,3.785 l 12.425,10.838 c 0.74,0.645 1.677,0.985 2.63,0.985 0.435,0 0.872,-0.071 1.295,-0.216 1.352,-0.463 2.354,-1.612 2.629,-3.014 l 2.97,-15.142 255.903,-293.38 c 4.325,-4.956 6.107,-11.504 4.892,-17.967 z M 144.093,309.168 110.111,285.427 171.593,214.54 c 14.298,-16.485 35.014,-25.94 56.836,-25.94 6.324,0 12.62,0.805 18.751,2.385 z m 9.593,-109.173 c 16.532,-23.37 19.716,-53.599 9.042,-79.67 30.427,14.088 57.103,35.009 78.034,61.196 -4.08,-0.613 -8.202,-0.921 -12.334,-0.921 -24.143,0 -47.061,10.46 -62.88,28.699 L 65.511,324.638 Z M 42.582,400.192 c -2.21,-1.928 -5.042,-2.99 -7.972,-2.99 -3.088,0 -6.04,1.177 -8.275,3.26 L 15.01,395.05 34.931,372.212 76.194,391.936 c -5.772,8.005 -11.631,16.276 -17.159,24.16 l -12.344,-5.9 c 0.256,-3.667 -1.132,-7.407 -4.109,-10.004 z m -4.86,11.86 c -0.785,0.9 -1.921,1.416 -3.118,1.416 -0.998,0 -1.961,-0.361 -2.714,-1.018 -1.717,-1.498 -1.896,-4.114 -0.397,-5.832 0.785,-0.9 1.921,-1.416 3.117,-1.416 0.997,0 1.96,0.361 2.713,1.019 1.718,1.498 1.897,4.114 0.399,5.831 z M 18.811,432.343 C 13.004,428.481 9.142,422.302 8.215,415.39 c -0.633,-4.721 0.147,-9.473 2.164,-13.686 l 12.24,5.849 c -0.581,3.952 0.785,8.11 4.012,10.925 2.21,1.928 5.041,2.99 7.972,2.99 0,0 0,0 10e-4,0 3.397,0 6.621,-1.431 8.916,-3.92 l 10.869,5.195 c -0.767,1.1 -1.528,2.193 -2.275,3.267 -7.468,10.738 -22.408,13.578 -33.303,6.333 z m 87.806,-80.211 c -6.447,7.392 -15.738,19.624 -25.65,33.22 l -40.665,-19.438 64.538,-74.41 33.964,23.728 z m 62.378,-59.342 15.671,-17.966 20.099,17.531 -15.671,17.966 z m 4.936,43.013 -1.983,-1.73 2.489,-0.853 z M 433.292,30.361 210.024,286.326 189.925,268.795 413.193,12.829 c 4.068,-4.666 10.742,-5.922 16.229,-3.052 3.643,1.904 6.167,5.313 6.927,9.353 0.76,4.04 -0.355,8.133 -3.057,11.231 z"
   id="path820"
   inkscape:connector-curvature="0" />
	<path
   d="m 173.673,138.744 c 17.19,10.085 32.901,22.494 46.694,36.883 0.786,0.819 1.836,1.232 2.888,1.232 0.996,0 1.992,-0.369 2.768,-1.112 1.595,-1.529 1.648,-4.061 0.12,-5.656 -14.304,-14.921 -30.595,-27.789 -48.422,-38.247 -1.906,-1.119 -4.356,-0.479 -5.474,1.426 -1.118,1.905 -0.48,4.356 1.426,5.474 z"
   id="path822"
   inkscape:connector-curvature="0" />
</g>
<g
   id="g826"
   transform="matrix(1.124646,0,0,1.1258795,6.4350429e-6,-0.27441448)">
</g>
<g
   id="g828"
   transform="matrix(1.124646,0,0,1.1258795,6.4350429e-6,-0.27441448)">
</g>
<g
   id="g830"
   transform="matrix(1.124646,0,0,1.1258795,6.4350429e-6,-0.27441448)">
</g>
<g
   id="g832"
   transform="matrix(1.124646,0,0,1.1258795,6.4350429e-6,-0.27441448)">
</g>
<g
   id="g834"
   transform="matrix(1.124646,0,0,1.1258795,6.4350429e-6,-0.27441448)">
</g>
<g
   id="g836"
   transform="matrix(1.124646,0,0,1.1258795,6.4350429e-6,-0.27441448)">
</g>
<g
   id="g838"
   transform="matrix(1.124646,0,0,1.1258795,6.4350429e-6,-0.27441448)">
</g>
<g
   id="g840"
   transform="matrix(1.124646,0,0,1.1258795,6.4350429e-6,-0.27441448)">
</g>
<g
   id="g842"
   transform="matrix(1.124646,0,0,1.1258795,6.4350429e-6,-0.27441448)">
</g>
<g
   id="g844"
   transform="matrix(1.124646,0,0,1.1258795,6.4350429e-6,-0.27441448)">
</g>
<g
   id="g846"
   transform="matrix(1.124646,0,0,1.1258795,6.4350429e-6,-0.27441448)">
</g>
<g
   id="g848"
   transform="matrix(1.124646,0,0,1.1258795,6.4350429e-6,-0.27441448)">
</g>
<g
   id="g850"
   transform="matrix(1.124646,0,0,1.1258795,6.4350429e-6,-0.27441448)">
</g>
<g
   id="g852"
   transform="matrix(1.124646,0,0,1.1258795,6.4350429e-6,-0.27441448)">
</g>
<g
   id="g854"
   transform="matrix(1.124646,0,0,1.1258795,6.4350429e-6,-0.27441448)">
</g>
</svg>