<?xml version="1.0" encoding="iso-8859-1"?>
<!-- Generator: Adobe Illustrator 18.0.0, SVG Export Plug-In . SVG Version: 6.00 Build 0)  -->
<!DOCTYPE svg PUBLIC "-//W3C//DTD SVG 1.1//EN" "http://www.w3.org/Graphics/SVG/1.1/DTD/svg11.dtd">
<svg version="1.1" id="Capa_1" xmlns="http://www.w3.org/2000/svg" xmlns:xlink="http://www.w3.org/1999/xlink" x="0px" y="0px"
	 viewBox="0 0 444.584 444.584" style="enable-background:new 0 0 444.584 444.584;" xml:space="preserve">
<g>
	<path d="M444.211,17.652c-1.215-6.463-5.254-11.917-11.082-14.964c-8.777-4.588-19.454-2.582-25.965,4.883l-154.19,176.771
		c-24.535-33.605-57.825-59.667-96.364-75.403l-0.727-0.297c-1.582-0.645-3.401-0.215-4.526,1.073
		c-1.124,1.288-1.306,3.148-0.451,4.629c14.617,25.342,13.145,57.149-3.75,81.032L7.941,390.985
		c-6.098,6.991-8.888,16.274-7.655,25.468s6.37,17.414,14.094,22.551c5.427,3.609,11.605,5.337,17.736,5.337
		c10.244,0,20.351-4.827,26.566-13.765c14.492-20.842,40.772-58.063,53.963-73.186l51.09-58.572l20.099,17.532l-6.463,7.409
		l-14.571,4.99c-1.352,0.463-2.354,1.612-2.629,3.014s0.219,2.845,1.296,3.785l12.425,10.838c0.74,0.645,1.677,0.985,2.63,0.985
		c0.435,0,0.872-0.071,1.295-0.216c1.352-0.463,2.354-1.612,2.629-3.014l2.97-15.142l255.903-293.38
		C443.644,30.663,445.426,24.115,444.211,17.652z M144.093,309.168l-33.982-23.741l61.482-70.887
		c14.298-16.485,35.014-25.94,56.836-25.94c6.324,0,12.62,0.805,18.751,2.385L144.093,309.168z M153.686,199.995
		c16.532-23.37,19.716-53.599,9.042-79.67c30.427,14.088,57.103,35.009,78.034,61.196c-4.08-0.613-8.202-0.921-12.334-0.921
		c-24.143,0-47.061,10.46-62.88,28.699L65.511,324.638L153.686,199.995z M42.582,400.192c-2.21-1.928-5.042-2.99-7.972-2.99
		c-3.088,0-6.04,1.177-8.275,3.26l-11.325-5.412l19.921-22.838l41.263,19.724c-5.772,8.005-11.631,16.276-17.159,24.16l-12.344-5.9
		C46.947,406.529,45.559,402.789,42.582,400.192z M37.722,412.052c-0.785,0.9-1.921,1.416-3.118,1.416
		c-0.998,0-1.961-0.361-2.714-1.018c-1.717-1.498-1.896-4.114-0.397-5.832c0.785-0.9,1.921-1.416,3.117-1.416
		c0.997,0,1.96,0.361,2.713,1.019C39.041,407.719,39.22,410.335,37.722,412.052z M18.811,432.343
		c-5.807-3.862-9.669-10.041-10.596-16.953c-0.633-4.721,0.147-9.473,2.164-13.686l12.24,5.849
		c-0.581,3.952,0.785,8.11,4.012,10.925c2.21,1.928,5.041,2.99,7.972,2.99c0,0,0,0,0.001,0c3.397,0,6.621-1.431,8.916-3.92
		l10.869,5.195c-0.767,1.1-1.528,2.193-2.275,3.267C44.646,436.748,29.706,439.588,18.811,432.343z M106.617,352.132
		c-6.447,7.392-15.738,19.624-25.65,33.22l-40.665-19.438l64.538-74.41l33.964,23.728L106.617,352.132z M168.995,292.79
		l15.671-17.966l20.099,17.531l-15.671,17.966L168.995,292.79z M173.931,335.803l-1.983-1.73l2.489-0.853L173.931,335.803z
		 M433.292,30.361L210.024,286.326l-20.099-17.531L413.193,12.829c4.068-4.666,10.742-5.922,16.229-3.052
		c3.643,1.904,6.167,5.313,6.927,9.353S435.994,27.263,433.292,30.361z"/>
	<path d="M173.673,138.744c17.19,10.085,32.901,22.494,46.694,36.883c0.786,0.819,1.836,1.232,2.888,1.232
		c0.996,0,1.992-0.369,2.768-1.112c1.595-1.529,1.648-4.061,0.12-5.656c-14.304-14.921-30.595-27.789-48.422-38.247
		c-1.906-1.119-4.356-0.479-5.474,1.426S171.767,137.626,173.673,138.744z"/>
</g>
<g>
</g>
<g>
</g>
<g>
</g>
<g>
</g>
<g>
</g>
<g>
</g>
<g>
</g>
<g>
</g>
<g>
</g>
<g>
</g>
<g>
</g>
<g>
</g>
<g>
</g>
<g>
</g>
<g>
</g>
</svg>
