<?xml version="1.0" encoding="UTF-8" standalone="no"?>
<!-- Generator: Adobe Illustrator 18.0.0, SVG Export Plug-In . SVG Version: 6.00 Build 0)  -->

<svg
   xmlns:dc="http://purl.org/dc/elements/1.1/"
   xmlns:cc="http://creativecommons.org/ns#"
   xmlns:rdf="http://www.w3.org/1999/02/22-rdf-syntax-ns#"
   xmlns:svg="http://www.w3.org/2000/svg"
   xmlns="http://www.w3.org/2000/svg"
   xmlns:sodipodi="http://sodipodi.sourceforge.net/DTD/sodipodi-0.dtd"
   xmlns:inkscape="http://www.inkscape.org/namespaces/inkscape"
   version="1.1"
   id="Capa_1"
   x="0px"
   y="0px"
   viewBox="0 0 500 500"
   xml:space="preserve"
   sodipodi:docname="Violin.svg"
   width="500"
   height="500"
   inkscape:version="0.92.3 (2405546, 2018-03-11)"><metadata
   id="metadata955"><rdf:RDF><cc:Work
       rdf:about=""><dc:format>image/svg+xml</dc:format><dc:type
         rdf:resource="http://purl.org/dc/dcmitype/StillImage" /><dc:title></dc:title></cc:Work></rdf:RDF></metadata><defs
   id="defs953" /><sodipodi:namedview
   pagecolor="#ffffff"
   bordercolor="#666666"
   borderopacity="1"
   objecttolerance="10"
   gridtolerance="10"
   guidetolerance="10"
   inkscape:pageopacity="0"
   inkscape:pageshadow="2"
   inkscape:window-width="958"
   inkscape:window-height="1008"
   id="namedview951"
   showgrid="false"
   inkscape:zoom="0.50212766"
   inkscape:cx="235"
   inkscape:cy="235"
   inkscape:window-x="-7"
   inkscape:window-y="0"
   inkscape:window-maximized="0"
   inkscape:current-layer="Capa_1" />
<g
   id="g918"
   transform="matrix(1.1305732,0,0,1.1305644,-0.00151465,0)">
	<path
   d="M 439.826,8.864 433.397,2.435 C 431.827,0.865 429.738,0 427.517,0 c -1.647,0 -3.243,0.484 -4.614,1.399 l -7.862,5.248 -1.908,-1.908 c -1.561,-1.562 -4.096,-1.562 -5.656,0 -1.563,1.563 -1.563,4.095 0,5.657 l 0.779,0.779 -6.017,4.017 c -2.08,1.388 -3.413,3.611 -3.658,6.099 -0.123,1.246 0.035,2.48 0.445,3.623 l -3.28,3.067 -3.418,-3.418 c 0.897,-1.446 1.549,-2.974 1.885,-4.502 0.725,-3.299 -0.038,-6.37 -2.093,-8.424 -1.522,-1.522 -3.658,-2.361 -6.014,-2.361 -3.439,0 -7.107,1.696 -10.065,4.652 -5.148,5.15 -6.154,12.212 -2.289,16.079 1.523,1.523 3.659,2.361 6.015,2.361 2.294,0 4.687,-0.769 6.906,-2.149 l 3.227,3.227 -16,14.958 -2.707,-2.707 c 0.897,-1.445 1.548,-2.973 1.884,-4.5 0.725,-3.299 -0.038,-6.37 -2.092,-8.423 -1.523,-1.523 -3.659,-2.362 -6.015,-2.362 -3.439,0 -7.108,1.695 -10.064,4.651 -5.15,5.15 -6.156,12.213 -2.291,16.079 1.523,1.523 3.659,2.362 6.015,2.362 2.295,0 4.688,-0.77 6.908,-2.15 l 2.516,2.516 -91.261,85.322 c -14.457,-10.064 -30.92,-16.121 -46.772,-17.135 -18.038,-1.152 -34.149,4.391 -45.369,15.61 -1.452,1.453 -2.826,2.888 -4.14,4.315 L 111.409,72.879 v 0 c -0.001,-0.001 -0.003,-0.003 -0.005,-0.004 L 97.478,58.953 c -4.122,-4.122 -9.602,-6.392 -15.431,-6.392 -4.471,0 -8.731,1.346 -12.336,3.829 L 67.63,54.309 c -1.563,-1.562 -4.095,-1.562 -5.657,0 -1.562,1.563 -1.562,4.095 0,5.657 l 103.371,103.371 c -0.19,0.377 -0.382,0.754 -0.565,1.133 -2.069,3.455 -6.781,9.623 -15.547,13.204 -3.137,1.291 -5.157,4.302 -5.147,7.672 0.01,3.283 1.894,6.083 4.9,7.299 0.093,0.039 1.152,0.529 1.152,0.529 1.222,0.48 2.114,1.156 2.718,2.053 1.772,2.652 0.855,7.577 -2.454,13.174 -3.948,6.677 -10.668,13.506 -18.924,19.232 -11.643,8.083 -24.708,12.525 -32.519,11.042 -2.25,-0.426 -3.838,-1.31 -4.715,-2.62 -0.068,-0.106 -0.735,-1.197 -3.031,-6.795 -1.125,-2.727 -3.668,-4.426 -6.637,-4.435 -0.007,0 -0.014,0 -0.021,0 -3.031,0 -5.751,1.817 -6.932,4.632 -1.641,3.909 -3.986,7.403 -6.969,10.386 -3.345,3.345 -7.419,5.914 -11.777,7.426 -16.87,5.829 -30.855,13.979 -40.445,23.568 -15.887,15.888 -21.781,38.524 -16.595,63.739 4.797,23.326 18.492,47.225 38.562,67.295 20.066,20.065 43.962,33.757 67.286,38.553 5.97,1.227 11.793,1.833 17.418,1.833 18.134,0 34.193,-6.305 46.318,-18.43 9.581,-9.581 17.733,-23.561 23.578,-40.433 2.901,-8.388 9.39,-15.225 17.787,-18.751 0.936,-0.389 1.765,-0.94 2.465,-1.64 1.769,-1.769 2.534,-4.288 2.045,-6.738 -0.475,-2.383 -2.041,-4.285 -4.306,-5.222 -5.488,-2.251 -6.61,-2.913 -6.781,-3.024 -1.311,-0.876 -2.191,-2.458 -2.618,-4.701 -1.482,-7.804 2.953,-20.88 11.035,-32.538 5.725,-8.255 12.554,-14.975 19.231,-18.92 5.598,-3.308 10.525,-4.223 13.177,-2.45 0.898,0.603 1.574,1.498 2.065,2.735 l 0.507,1.112 c 1.224,3.023 4.023,4.907 7.307,4.917 0.009,0 0.017,0 0.024,0 3.359,0 6.36,-2.019 7.649,-5.152 3.608,-8.801 9.767,-13.485 13.208,-15.531 0.38,-0.184 0.758,-0.377 1.136,-0.568 l 131.276,131.276 c 0.78,0.781 1.805,1.171 2.828,1.171 1.023,0 2.048,-0.391 2.828,-1.171 1.563,-1.563 1.563,-4.095 0,-5.657 L 396.8,383.481 409.404,370.879 300.273,261.747 c 1.427,-1.314 2.862,-2.687 4.314,-4.14 11.215,-11.214 16.755,-27.323 15.602,-45.357 -1.013,-15.854 -7.07,-32.316 -17.132,-46.77 l 75.119,-80.348 3.829,3.829 c -0.896,1.445 -1.547,2.972 -1.883,4.498 -0.725,3.299 0.038,6.37 2.092,8.423 1.523,1.523 3.659,2.362 6.015,2.362 3.439,0 7.108,-1.695 10.065,-4.652 5.148,-5.15 6.154,-12.212 2.29,-16.078 -1.523,-1.523 -3.659,-2.362 -6.015,-2.362 -2.296,0 -4.689,0.77 -6.909,2.151 l -4.019,-4.019 14.959,-16.001 4.535,4.535 c -2.847,4.6 -2.906,9.805 0.214,12.927 1.523,1.523 3.659,2.362 6.015,2.362 3.44,0 7.109,-1.695 10.064,-4.651 2.231,-2.231 3.788,-4.95 4.383,-7.656 0.725,-3.299 -0.038,-6.37 -2.092,-8.423 -1.523,-1.523 -3.659,-2.362 -6.015,-2.362 -2.295,0 -4.689,0.77 -6.909,2.151 l -4.73,-4.729 13.283,-14.208 c 0.887,0.317 1.828,0.492 2.798,0.492 2.787,0 5.374,-1.382 6.92,-3.698 l 4.017,-6.018 0.786,0.786 c 0.78,0.781 1.805,1.172 2.828,1.172 1.023,0 2.047,-0.391 2.828,-1.171 1.563,-1.562 1.563,-4.095 0,-5.657 l -1.914,-1.914 5.248,-7.862 c 2.197,-3.285 1.762,-7.699 -1.033,-10.495 z m -60.407,15.47 c -0.181,-0.581 0.212,-2.681 2.278,-4.748 1.596,-1.595 3.363,-2.309 4.408,-2.309 0.166,0 0.28,0.019 0.346,0.036 0.181,0.58 -0.211,2.681 -2.279,4.749 -1.594,1.595 -3.361,2.308 -4.406,2.308 -0.166,0 -0.282,-0.019 -0.347,-0.036 z m -21.137,21.137 c -0.181,-0.58 0.211,-2.68 2.278,-4.748 1.596,-1.595 3.363,-2.309 4.408,-2.309 0.166,0 0.28,0.019 0.346,0.036 0.182,0.58 -0.211,2.68 -2.278,4.748 -1.596,1.595 -3.363,2.309 -4.408,2.309 -0.166,-10e-4 -0.28,-0.019 -0.346,-0.036 z m 36.634,43.717 c 0.181,0.581 -0.212,2.681 -2.278,4.748 -1.596,1.595 -3.363,2.309 -4.408,2.309 -0.166,0 -0.28,-0.019 -0.346,-0.036 -0.182,-0.58 0.21,-2.68 2.278,-4.748 1.596,-1.595 3.363,-2.309 4.408,-2.309 0.166,0.001 0.281,0.019 0.346,0.036 z m 21.137,-21.136 c 0.181,0.58 -0.211,2.68 -2.279,4.748 -1.594,1.595 -3.362,2.308 -4.407,2.308 -0.166,0 -0.28,-0.019 -0.346,-0.036 -0.181,-0.581 0.212,-2.681 2.278,-4.748 1.596,-1.595 3.363,-2.309 4.408,-2.309 0.166,0.001 0.281,0.02 0.346,0.037 z m -11.948,-36.936 7.039,7.039 -2.525,2.7 -7.215,-7.215 z M 190.307,143.327 c 9.708,-9.709 23.269,-14.303 39.201,-13.283 13.9,0.889 28.378,6.094 41.292,14.752 l -45.211,42.268 -39.418,-39.417 c 1.306,-1.426 2.679,-2.863 4.136,-4.32 z m 52.712,86.371 6.712,-7.179 38.773,38.773 c -2.73,2.149 -5.442,4.046 -8.179,5.712 z m -5.66,-5.659 -19.137,-19.137 7.179,-6.712 18.669,18.669 z m -5.467,5.847 -20.063,21.46 -20.914,-20.914 21.46,-20.063 z m -19.329,-30.644 -37.305,-37.305 c 1.664,-2.737 3.559,-5.45 5.709,-8.182 l 38.775,38.775 z M 75.515,62.195 c 1.985,-1.067 4.214,-1.634 6.531,-1.634 3.692,0 7.164,1.438 9.774,4.049 l 2,2 c -3.584,0.353 -7.09,1.599 -10.175,3.716 z m 13.936,13.936 c 5.227,-2.795 11.883,-1.999 16.29,2.399 l 69.53,69.53 c -2.158,2.691 -4.091,5.37 -5.82,8.071 z m -46.288,317.099 32.404,-32.404 5.868,5.869 -32.404,32.404 c -0.999,-0.949 -1.995,-1.903 -2.977,-2.885 -0.983,-0.984 -1.94,-1.983 -2.891,-2.984 z m 44.444,-31.679 -6.896,-6.897 25.373,-38.212 19.735,19.735 z m 169.579,-71.569 c -0.057,0.138 -0.272,0.015 -0.272,0.015 -0.177,-0.423 -0.33,-0.791 -0.512,-1.127 -1.094,-2.597 -2.744,-4.648 -4.914,-6.105 -10.581,-7.078 -29.255,3.006 -43.436,23.457 -9.514,13.722 -14.235,28.509 -12.32,38.589 0.83,4.367 2.915,7.776 6.025,9.855 0.716,0.48 2.092,1.235 6.681,3.151 -9.891,4.553 -17.504,12.854 -20.999,22.96 -5.372,15.508 -13.07,28.788 -21.675,37.393 -17.843,17.844 -40.556,17.688 -56.468,14.417 -18.478,-3.799 -37.414,-13.67 -54.308,-28.13 l 34.652,-34.652 48.75,-32.371 -33.561,-33.562 -32.372,48.75 -34.651,34.651 C 23.346,370.376 13.473,351.44 9.673,332.963 6.401,317.051 6.245,294.338 24.089,276.494 c 8.612,-8.613 21.895,-16.306 37.406,-21.666 5.499,-1.908 10.622,-5.134 14.816,-9.329 3.395,-3.395 6.125,-7.318 8.131,-11.68 2.194,5.249 2.852,6.233 3.147,6.676 2.088,3.123 5.504,5.211 9.88,6.04 10.083,1.91 24.863,-2.815 38.568,-12.329 20.448,-14.18 30.537,-32.849 23.46,-43.436 -1.466,-2.177 -3.521,-3.827 -6.111,-4.91 -0.36,-0.193 -0.777,-0.37 -1.302,-0.59 0.01,-0.061 0.051,-0.14 0.183,-0.194 10.364,-4.234 16.199,-11.426 18.974,-15.842 l 35.475,35.475 -27.307,25.529 32.614,32.614 25.53,-27.307 35.48,35.48 c -4.411,2.757 -11.588,8.567 -15.847,18.957 z m 140.905,80.897 -6.946,6.946 -14.905,-14.905 6.946,-6.946 z m -20.562,-20.562 -6.946,6.946 -84.453,-84.453 c 2.701,-1.731 5.379,-3.665 8.068,-5.823 z M 312.206,212.761 c 1.019,15.935 -3.571,29.486 -13.274,39.189 -1.457,1.457 -2.894,2.83 -4.319,4.136 l -39.415,-39.414 42.259,-45.2 c 8.656,12.912 13.86,27.388 14.749,41.289 z m -62.668,-1.749 -18.289,-18.289 131.539,-122.979 9.728,9.728 z m 119.097,-146.734 5.076,-4.746 9.017,9.017 -4.746,5.076 z m 19.56,-1.576 -8.636,-8.636 5.078,-4.747 8.306,8.306 z m 2.288,-18.85 5.075,-4.745 7.595,7.595 -4.744,5.075 z m 29.932,-8.27 c -0.122,0.183 -0.398,0.133 -0.484,0.048 l -13.299,-13.3 c -0.028,-0.029 -0.105,-0.105 -0.091,-0.253 0.014,-0.148 0.105,-0.208 0.139,-0.23 L 427.344,8.054 C 427.397,8.018 427.453,8 427.517,8 c 0.061,0 0.148,0.016 0.225,0.092 l 6.428,6.428 c 0.105,0.106 0.122,0.273 0.039,0.398 z"
   id="path910"
   inkscape:connector-curvature="0" />
	<path
   d="m 149.606,244.733 c 1.114,0 2.162,0.434 2.949,1.222 1.622,1.622 1.622,4.261 0,5.882 l -1.726,1.726 c -0.75,0.75 -1.172,1.768 -1.172,2.828 0,1.061 0.421,2.079 1.171,2.829 l 1.621,1.621 c 1.563,1.562 4.095,1.562 5.657,0 1.146,-1.146 1.451,-2.815 0.915,-4.24 3.914,-4.772 3.644,-11.849 -0.81,-16.302 -2.299,-2.299 -5.355,-3.565 -8.606,-3.565 -3.251,0 -6.308,1.266 -8.606,3.565 l -31.393,31.393 c -1.626,1.627 -4.272,1.627 -5.898,0 -1.622,-1.622 -1.622,-4.261 0,-5.882 l 1.726,-1.726 c 0.75,-0.75 1.171,-1.768 1.171,-2.829 0,-1.061 -0.422,-2.078 -1.172,-2.829 l -1.621,-1.62 c -1.563,-1.563 -4.096,-1.562 -5.657,0 -1.146,1.146 -1.451,2.816 -0.915,4.24 -3.914,4.772 -3.644,11.849 0.81,16.303 2.373,2.373 5.49,3.559 8.606,3.559 3.116,0 6.233,-1.187 8.606,-3.559 l 31.393,-31.394 c 0.79,-0.788 1.837,-1.222 2.951,-1.222 z"
   id="path912"
   inkscape:connector-curvature="0" />
	<path
   d="m 185.661,283.239 c -1.424,-0.536 -3.093,-0.231 -4.24,0.915 -1.562,1.563 -1.562,4.095 0,5.657 l 1.621,1.621 c 1.563,1.562 4.095,1.562 5.657,0 l 1.726,-1.726 c 1.621,-1.621 4.261,-1.622 5.882,0 1.626,1.626 1.626,4.272 0,5.898 l -31.393,31.393 c -4.745,4.746 -4.745,12.467 0,17.212 2.297,2.297 5.35,3.562 8.599,3.562 2.843,0 5.537,-0.969 7.705,-2.751 1.425,0.537 3.094,0.231 4.24,-0.916 1.562,-1.563 1.561,-4.095 -0.001,-5.657 l -1.621,-1.621 c -1.563,-1.562 -4.094,-1.561 -5.657,0 l -1.726,1.726 c -0.786,0.786 -1.83,1.218 -2.941,1.218 -1.111,0 -2.156,-0.433 -2.941,-1.219 -1.626,-1.626 -1.626,-4.272 0,-5.898 l 31.393,-31.393 c 4.745,-4.746 4.745,-12.467 0,-17.213 -4.454,-4.452 -11.533,-4.722 -16.303,-0.808 z"
   id="path914"
   inkscape:connector-curvature="0" />
	<path
   d="m 167.587,308.373 c 1.024,0 2.047,-0.391 2.829,-1.171 1.562,-1.563 1.562,-4.095 0,-5.657 l -29.698,-29.698 c -1.563,-1.562 -4.095,-1.562 -5.657,0 -1.562,1.563 -1.562,4.095 0,5.657 l 29.698,29.698 c 0.781,0.78 1.804,1.171 2.828,1.171 z"
   id="path916"
   inkscape:connector-curvature="0" />
</g>
<g
   id="g920"
   transform="matrix(1.1305732,0,0,1.1305644,-0.00151465,0)">
</g>
<g
   id="g922"
   transform="matrix(1.1305732,0,0,1.1305644,-0.00151465,0)">
</g>
<g
   id="g924"
   transform="matrix(1.1305732,0,0,1.1305644,-0.00151465,0)">
</g>
<g
   id="g926"
   transform="matrix(1.1305732,0,0,1.1305644,-0.00151465,0)">
</g>
<g
   id="g928"
   transform="matrix(1.1305732,0,0,1.1305644,-0.00151465,0)">
</g>
<g
   id="g930"
   transform="matrix(1.1305732,0,0,1.1305644,-0.00151465,0)">
</g>
<g
   id="g932"
   transform="matrix(1.1305732,0,0,1.1305644,-0.00151465,0)">
</g>
<g
   id="g934"
   transform="matrix(1.1305732,0,0,1.1305644,-0.00151465,0)">
</g>
<g
   id="g936"
   transform="matrix(1.1305732,0,0,1.1305644,-0.00151465,0)">
</g>
<g
   id="g938"
   transform="matrix(1.1305732,0,0,1.1305644,-0.00151465,0)">
</g>
<g
   id="g940"
   transform="matrix(1.1305732,0,0,1.1305644,-0.00151465,0)">
</g>
<g
   id="g942"
   transform="matrix(1.1305732,0,0,1.1305644,-0.00151465,0)">
</g>
<g
   id="g944"
   transform="matrix(1.1305732,0,0,1.1305644,-0.00151465,0)">
</g>
<g
   id="g946"
   transform="matrix(1.1305732,0,0,1.1305644,-0.00151465,0)">
</g>
<g
   id="g948"
   transform="matrix(1.1305732,0,0,1.1305644,-0.00151465,0)">
</g>
</svg>