<?xml version="1.0" encoding="UTF-8" standalone="no"?>
<!-- Generator: Adobe Illustrator 19.0.0, SVG Export Plug-In . SVG Version: 6.00 Build 0)  -->

<svg
   xmlns:dc="http://purl.org/dc/elements/1.1/"
   xmlns:cc="http://creativecommons.org/ns#"
   xmlns:rdf="http://www.w3.org/1999/02/22-rdf-syntax-ns#"
   xmlns:svg="http://www.w3.org/2000/svg"
   xmlns="http://www.w3.org/2000/svg"
   xmlns:sodipodi="http://sodipodi.sourceforge.net/DTD/sodipodi-0.dtd"
   xmlns:inkscape="http://www.inkscape.org/namespaces/inkscape"
   version="1.1"
   id="Layer_1"
   x="0px"
   y="0px"
   viewBox="0 0 500 500"
   xml:space="preserve"
   sodipodi:docname="Voice.svg"
   width="500"
   height="500"
   inkscape:version="0.92.3 (2405546, 2018-03-11)"><metadata
   id="metadata106"><rdf:RDF><cc:Work
       rdf:about=""><dc:format>image/svg+xml</dc:format><dc:type
         rdf:resource="http://purl.org/dc/dcmitype/StillImage" /><dc:title></dc:title></cc:Work></rdf:RDF></metadata><defs
   id="defs104" /><sodipodi:namedview
   pagecolor="#ffffff"
   bordercolor="#666666"
   borderopacity="1"
   objecttolerance="10"
   gridtolerance="10"
   guidetolerance="10"
   inkscape:pageopacity="0"
   inkscape:pageshadow="2"
   inkscape:window-width="958"
   inkscape:window-height="1008"
   id="namedview102"
   showgrid="false"
   inkscape:zoom="1.6601562"
   inkscape:cx="256"
   inkscape:cy="256"
   inkscape:window-x="-7"
   inkscape:window-y="0"
   inkscape:window-maximized="0"
   inkscape:current-layer="Layer_1" />
<g
   id="g63"
   transform="scale(0.9765625)">
	<g
   id="g61">
		<path
   d="M 470.694,41.306 C 444.056,14.669 408.64,0 370.97,0 c -37.671,0 -73.086,14.669 -99.723,41.306 -26.638,26.635 -41.307,62.052 -41.307,99.723 0,1.818 0.045,3.631 0.113,5.438 L 44.616,363.886 c -21.623,24.583 -23.844,60.029 -7.31,86.872 L 0,488.067 23.934,512 61.247,474.686 c 11.738,7.23 25.113,10.889 38.516,10.889 17.227,-10e-4 34.485,-6.017 48.309,-18.157 L 365.531,281.946 c 1.807,0.069 3.619,0.114 5.438,0.114 37.662,0 73.07,-14.664 99.706,-41.291 0.007,-0.006 0.014,-0.011 0.019,-0.017 26.635,-26.635 41.305,-62.051 41.306,-99.722 0,-37.672 -14.669,-73.087 -41.306,-99.724 z m -344.684,400.443 -0.211,0.183 c -15.575,13.734 -39.294,12.969 -53.999,-1.734 -14.707,-14.705 -15.467,-38.427 -1.732,-54 L 238.272,188.99 c 6.939,19.238 18.086,36.872 32.975,51.761 14.891,14.891 32.525,26.037 51.761,32.978 z M 370.969,248.212 c -28.629,0 -55.544,-11.15 -75.788,-31.394 -20.244,-20.244 -31.393,-47.16 -31.393,-75.789 0,-8.144 0.905,-16.147 2.662,-23.898 10.265,25.172 28.821,51.911 52.665,75.754 23.844,23.844 50.582,42.4 75.755,52.666 -7.752,1.758 -15.756,2.661 -23.901,2.661 z m 75.791,-31.394 c -5.438,5.438 -19.232,4.912 -36,-1.376 -21.578,-8.092 -46.258,-25.037 -67.712,-46.49 -21.453,-21.453 -38.398,-46.134 -46.49,-67.712 -6.288,-16.767 -6.815,-30.562 -1.376,-36 20.244,-20.243 47.159,-31.392 75.789,-31.392 28.63,0 55.545,11.149 75.791,31.392 20.243,20.244 31.392,47.16 31.392,75.79 -10e-4,28.629 -11.15,55.544 -31.394,75.788 z"
   id="path59"
   inkscape:connector-curvature="0" />
	</g>
</g>
<g
   id="g69"
   transform="scale(0.9765625)">
	<g
   id="g67">
		
			<rect
   x="193.522"
   y="267.70999"
   transform="matrix(0.7071,-0.7071,0.7071,0.7071,-134.6712,244.1409)"
   width="67.694"
   height="33.847"
   id="rect65" />
	</g>
</g>
<g
   id="g71"
   transform="scale(0.9765625)">
</g>
<g
   id="g73"
   transform="scale(0.9765625)">
</g>
<g
   id="g75"
   transform="scale(0.9765625)">
</g>
<g
   id="g77"
   transform="scale(0.9765625)">
</g>
<g
   id="g79"
   transform="scale(0.9765625)">
</g>
<g
   id="g81"
   transform="scale(0.9765625)">
</g>
<g
   id="g83"
   transform="scale(0.9765625)">
</g>
<g
   id="g85"
   transform="scale(0.9765625)">
</g>
<g
   id="g87"
   transform="scale(0.9765625)">
</g>
<g
   id="g89"
   transform="scale(0.9765625)">
</g>
<g
   id="g91"
   transform="scale(0.9765625)">
</g>
<g
   id="g93"
   transform="scale(0.9765625)">
</g>
<g
   id="g95"
   transform="scale(0.9765625)">
</g>
<g
   id="g97"
   transform="scale(0.9765625)">
</g>
<g
   id="g99"
   transform="scale(0.9765625)">
</g>
</svg>